<?xml version="1.0" encoding="utf-8"?>
<!-- Generator: Adobe Illustrator 27.5.0, SVG Export Plug-In . SVG Version: 6.00 Build 0)  -->
<svg version="1.1" xmlns="http://www.w3.org/2000/svg" xmlns:xlink="http://www.w3.org/1999/xlink" x="0px" y="0px"
	 viewBox="0 0 500 500" style="enable-background:new 0 0 500 500;" xml:space="preserve">
<g id="Background_Complete">
	<g>
		<rect x="416.779" y="398.494" style="fill:#EBEBEB;" width="33.122" height="0.25"/>
		<rect x="322.527" y="401.208" style="fill:#EBEBEB;" width="8.693" height="0.25"/>
		<rect x="396.586" y="389.208" style="fill:#EBEBEB;" width="19.192" height="0.25"/>
		<rect x="52.459" y="390.888" style="fill:#EBEBEB;" width="43.193" height="0.25"/>
		<rect x="104.556" y="390.888" style="fill:#EBEBEB;" width="6.333" height="0.25"/>
		<rect x="131.471" y="395.111" style="fill:#EBEBEB;" width="93.676" height="0.25"/>
		<g>
			<path style="fill:#EBEBEB;" d="M238.401,337.8H45.302c-3.147,0-5.708-2.561-5.708-5.708V60.66c0-3.147,2.561-5.708,5.708-5.708
				h193.099c3.146,0,5.707,2.561,5.707,5.708v271.432C244.108,335.239,241.547,337.8,238.401,337.8z M45.302,55.203
				c-3.01,0-5.458,2.448-5.458,5.458v271.432c0,3.01,2.448,5.458,5.458,5.458h193.099c3.009,0,5.457-2.448,5.457-5.458V60.66
				c0-3.009-2.448-5.458-5.457-5.458H45.302z"/>
			<path style="fill:#EBEBEB;" d="M454.698,337.8H261.599c-3.146,0-5.707-2.561-5.707-5.708V60.66c0-3.147,2.561-5.708,5.707-5.708
				h193.099c3.148,0,5.708,2.561,5.708,5.708v271.432C460.406,335.239,457.845,337.8,454.698,337.8z M261.599,55.203
				c-3.009,0-5.457,2.448-5.457,5.458v271.432c0,3.01,2.448,5.458,5.457,5.458h193.099c3.01,0,5.458-2.448,5.458-5.458V60.66
				c0-3.009-2.448-5.458-5.458-5.458H261.599z"/>
		</g>
		<rect y="382.398" style="fill:#EBEBEB;" width="500" height="0.25"/>
	</g>
	<g>
		<g>
			<path style="fill:#E6E6E6;" d="M210.797,228.24c-5.928,1.109-17.017,1.856-29.73,1.856c-12.713,0-23.802-0.747-29.73-1.856
				c-0.241,0.599-0.603,1.159-1.088,1.644c-1.929,1.928-5.75,1.235-6.984,0c-1.235-1.235-1.929-5.056,0-6.984
				c0.412-0.412,1.14-0.459,1.384-0.953c2.043-4.135-1.596-12.023-1.596-20.535c0-8.509,3.636-16.395,1.595-20.531
				c-0.817-1.656-2.83-2.48-2.83-4.449c0-1.97,2.012-2.793,2.83-4.449c2.04-4.136-1.595-12.022-1.595-20.531
				c0-8.512,3.638-16.4,1.596-20.535c-0.244-0.494-0.972-0.541-1.384-0.953c-1.929-1.929-1.235-5.75,0-6.985
				c1.235-1.235,5.055-1.929,6.984,0c0.485,0.485,0.522,1.334,1.088,1.644c5.288,2.899,17.017-1.856,29.73-1.856
				c12.713,0,24.442,4.755,29.73,1.856c0.566-0.31,0.603-1.159,1.088-1.644c1.929-1.929,5.749-1.235,6.984,0
				c1.235,1.235,1.929,5.056,0,6.985c-0.412,0.412-1.14,0.459-1.384,0.953c-2.044,4.135,1.596,12.023,1.596,20.535
				c0,8.509-3.635,16.395-1.595,20.531c0.817,1.656,2.829,2.479,2.829,4.449c0,1.97-2.012,2.793-2.829,4.449
				c-2.041,4.136,1.595,12.022,1.595,20.531c0,8.512-3.638,16.4-1.596,20.535c0.244,0.494,0.972,0.542,1.384,0.953
				c1.929,1.929,1.235,5.75,0,6.984c-1.235,1.235-5.055,1.928-6.984,0C211.4,229.399,211.038,228.839,210.797,228.24z"/>
			<path style="fill:#F5F5F5;" d="M213.049,227.988c-5.928,1.109-17.017,1.856-29.73,1.856c-12.713,0-23.802-0.747-29.73-1.856
				c-0.241,0.599-0.603,1.159-1.088,1.644c-1.929,1.929-5.749,1.235-6.984,0c-1.235-1.235-1.929-5.056,0-6.984
				c0.412-0.412,1.14-0.459,1.384-0.953c2.042-4.135-1.596-12.023-1.596-20.535c0-8.51,3.636-16.395,1.595-20.531
				c-0.817-1.656-2.829-2.479-2.829-4.449c0-1.97,2.012-2.793,2.829-4.449c2.04-4.136-1.595-12.022-1.595-20.531
				c0-8.512,3.638-16.4,1.596-20.535c-0.244-0.494-0.972-0.541-1.384-0.953c-1.929-1.929-1.235-5.75,0-6.985
				c1.235-1.235,5.055-1.929,6.984,0c0.485,0.485,0.522,1.334,1.088,1.644c5.288,2.899,17.017-1.856,29.73-1.856
				c12.713,0,24.442,4.755,29.73,1.856c0.566-0.31,0.603-1.159,1.088-1.644c1.929-1.929,5.75-1.235,6.984,0
				c1.235,1.235,1.929,5.056,0,6.985c-0.412,0.412-1.14,0.459-1.384,0.953c-2.044,4.135,1.596,12.023,1.596,20.535
				c0,8.51-3.635,16.395-1.595,20.531c0.817,1.656,2.83,2.479,2.83,4.449c0,1.97-2.012,2.793-2.83,4.449
				c-2.041,4.136,1.595,12.022,1.595,20.531c0,8.512-3.638,16.4-1.596,20.535c0.244,0.494,0.972,0.541,1.384,0.953
				c1.929,1.929,1.235,5.75,0,6.984c-1.235,1.235-5.055,1.929-6.984,0C213.652,229.148,213.29,228.587,213.049,227.988z"/>
			
				<rect x="153.569" y="131.837" transform="matrix(-1 -1.224647e-16 1.224647e-16 -1 366.6378 352.3595)" style="fill:#EBEBEB;" width="59.5" height="88.685"/>
			
				<rect x="157.674" y="137.956" transform="matrix(-1 -1.224647e-16 1.224647e-16 -1 366.6378 352.3595)" style="fill:#FAFAFA;" width="51.29" height="76.448"/>
			<g>
				
					<ellipse transform="matrix(0.9732 -0.2298 0.2298 0.9732 -37.7641 47.3063)" style="fill:#E0E0E0;" cx="184.264" cy="185.822" rx="10.29" ry="10.29"/>
				<polygon style="fill:#EBEBEB;" points="173.973,145.822 189.02,163.822 194.554,145.822 				"/>
				<g>
					<path style="fill:#EBEBEB;" d="M166.725,198.611c-7.201-11.726-1.992-26.286,6.188-35.849c1.257-1.469,3.37,0.661,2.121,2.121
						c-7.305,8.54-12.175,21.7-5.719,32.214C170.328,198.746,167.735,200.255,166.725,198.611L166.725,198.611z"/>
				</g>
				<polygon style="fill:#EBEBEB;" points="197.02,206.446 191.52,200.822 197.02,196.112 202.02,201.279 				"/>
			</g>
		</g>
		<g>
			<g>
				<path style="fill:#FAFAFA;" d="M230.723,229.647h-7.987l-1.84,1.84v20.729h11.668v-20.729L230.723,229.647z M226.73,232.765
					c-0.553,0-1.001-0.448-1.001-1.001c0-0.553,0.448-1.001,1.001-1.001c0.553,0,1.001,0.448,1.001,1.001
					C227.731,232.317,227.283,232.765,226.73,232.765z"/>
				<rect x="220.896" y="244.048" style="fill:#E0E0E0;" width="11.668" height="8.168"/>
				<g>
					<path style="fill:#E0E0E0;" d="M228.296,240.538c-0.271,0.264-0.662,0.428-1.173,0.492v0.759h-0.677v-0.739
						c-0.335-0.018-0.653-0.077-0.956-0.176c-0.303-0.099-0.547-0.221-0.732-0.366l0.373-0.827c0.172,0.127,0.373,0.233,0.603,0.318
						c0.231,0.086,0.468,0.14,0.712,0.163v-1.132c-0.321-0.077-0.592-0.163-0.814-0.258c-0.221-0.095-0.406-0.234-0.556-0.417
						c-0.149-0.183-0.224-0.426-0.224-0.729c0-0.375,0.137-0.697,0.41-0.966c0.273-0.269,0.668-0.432,1.183-0.491v-0.752h0.677
						v0.738c0.556,0.045,1.014,0.183,1.376,0.414l-0.339,0.833c-0.339-0.194-0.684-0.312-1.037-0.352v1.152
						c0.316,0.073,0.584,0.155,0.803,0.247c0.219,0.093,0.403,0.23,0.552,0.414c0.149,0.183,0.224,0.424,0.224,0.722
						C228.702,239.956,228.567,240.273,228.296,240.538z M226.072,237.851c0.086,0.072,0.21,0.133,0.373,0.183v-0.962
						c-0.172,0.041-0.298,0.105-0.38,0.193c-0.081,0.088-0.122,0.191-0.122,0.308C225.944,237.686,225.986,237.779,226.072,237.851z
						 M227.489,239.959c0.081-0.081,0.122-0.178,0.122-0.292c0-0.113-0.042-0.206-0.125-0.278c-0.084-0.072-0.205-0.135-0.363-0.19
						v0.935C227.286,240.099,227.408,240.04,227.489,239.959z"/>
				</g>
			</g>
			<g>
				<path style="fill:#E0E0E0;" d="M226.997,231.338l-0.5-0.013c0.161-6.161-1.965-9.837-3.777-11.837
					c-1.964-2.166-3.994-2.889-4.014-2.896l0.163-0.473C218.953,216.149,227.314,219.178,226.997,231.338z"/>
			</g>
		</g>
	</g>
	<g>
		<g>
			<rect x="90.591" y="208.209" style="fill:#F5F5F5;" width="3.042" height="174.929"/>
			<path style="fill:#EBEBEB;" d="M114.447,383.328c0.085-2.343-1.377-4.753-4.4-4.753c-11.957,0-23.913,0-35.87,0
				c-3.017,0-4.483,2.41-4.4,4.753H114.447z"/>
			<g>
				<path style="fill:#EBEBEB;" d="M80.128,185.175c0.239-2.107-1.287-4.002-3.398-4.323c-2.112-0.321-4.137,1.035-4.534,3.118
					c-2.774,14.546-5.55,29.092-8.325,43.638c-0.397,2.083,1.85,4.273,5.036,4.757c3.186,0.484,5.974-0.941,6.213-3.048
					C76.789,214.603,78.459,199.889,80.128,185.175z"/>
				<path style="fill:#F5F5F5;" d="M88.112,185.777c0.08-2.119-1.582-3.894-3.707-4.054c-2.125-0.16-4.037,1.345-4.276,3.452
					c-1.669,14.714-3.339,29.428-5.009,44.142c-0.239,2.107,2.159,4.12,5.365,4.362c3.206,0.242,5.875-1.389,5.955-3.508
					C86.997,215.373,87.554,200.576,88.112,185.777z"/>
				<path style="fill:#EBEBEB;" d="M96.112,185.777c-0.08-2.119-1.87-3.764-4-3.764c-2.13,0-3.92,1.645-4,3.764
					c-0.557,14.798-1.115,29.596-1.672,44.394c-0.08,2.119,2.459,3.946,5.672,3.946c3.213,0,5.752-1.827,5.672-3.946
					C97.226,215.373,96.669,200.576,96.112,185.777z"/>
				<path style="fill:#F5F5F5;" d="M104.096,185.175c-0.239-2.107-2.151-3.612-4.276-3.452c-2.125,0.16-3.787,1.935-3.707,4.054
					c0.557,14.798,1.114,29.596,1.672,44.394c0.08,2.119,2.749,3.75,5.955,3.508c3.207-0.242,5.605-2.255,5.365-4.362
					C107.435,214.603,105.765,199.889,104.096,185.175z"/>
				<path style="fill:#EBEBEB;" d="M112.028,183.97c-0.397-2.083-2.422-3.439-4.534-3.118c-2.112,0.321-3.637,2.216-3.398,4.323
					c1.669,14.714,3.339,29.428,5.009,44.142c0.239,2.107,3.027,3.532,6.212,3.048c3.186-0.484,5.432-2.674,5.035-4.757
					C117.577,213.063,114.802,198.516,112.028,183.97z"/>
			</g>
		</g>
		<g>
			<path style="fill:#FAFAFA;" d="M118.444,231.623h-7.987l-1.84,1.84v20.729h11.668v-20.729L118.444,231.623z M114.45,234.742
				c-0.553,0-1.001-0.448-1.001-1.001s0.448-1.001,1.001-1.001c0.553,0,1.001,0.448,1.001,1.001S115.003,234.742,114.45,234.742z"/>
			<rect x="108.616" y="246.025" style="fill:#E0E0E0;" width="11.668" height="8.168"/>
			<g>
				<path style="fill:#E0E0E0;" d="M116.016,242.515c-0.271,0.264-0.662,0.428-1.173,0.491v0.759h-0.678v-0.739
					c-0.335-0.018-0.653-0.077-0.956-0.176c-0.303-0.099-0.547-0.221-0.732-0.366l0.373-0.827c0.172,0.126,0.372,0.233,0.603,0.318
					c0.23,0.086,0.468,0.14,0.712,0.163v-1.132c-0.321-0.077-0.592-0.163-0.814-0.257c-0.221-0.095-0.406-0.234-0.556-0.417
					c-0.149-0.183-0.224-0.426-0.224-0.729c0-0.375,0.137-0.697,0.41-0.966c0.273-0.269,0.668-0.432,1.183-0.491v-0.752h0.678v0.738
					c0.556,0.045,1.014,0.183,1.376,0.414l-0.339,0.833c-0.339-0.194-0.684-0.312-1.037-0.352v1.152
					c0.316,0.072,0.584,0.155,0.803,0.247c0.219,0.093,0.403,0.23,0.552,0.414c0.149,0.183,0.224,0.424,0.224,0.722
					C116.422,241.933,116.287,242.25,116.016,242.515z M113.793,239.827c0.086,0.072,0.21,0.133,0.373,0.183v-0.962
					c-0.172,0.041-0.298,0.105-0.38,0.193c-0.081,0.088-0.122,0.191-0.122,0.308C113.664,239.663,113.707,239.755,113.793,239.827z
					 M115.209,241.935c0.081-0.081,0.122-0.178,0.122-0.291c0-0.113-0.042-0.206-0.125-0.278c-0.084-0.072-0.205-0.135-0.363-0.19
					v0.935C115.006,242.076,115.128,242.017,115.209,241.935z"/>
			</g>
		</g>
	</g>
	<g>
		<g>
			<rect x="276.42" y="142.724" style="fill:#E6E6E6;" width="26.386" height="240.604"/>
			<rect x="368.644" y="145.034" style="fill:#EBEBEB;" width="66.149" height="144.965"/>
			<rect x="302.496" y="145.034" style="fill:#EBEBEB;" width="66.149" height="144.965"/>
			<rect x="302.496" y="289.999" style="fill:#EBEBEB;" width="132.297" height="45.667"/>
			<rect x="302.496" y="335.666" style="fill:#EBEBEB;" width="132.297" height="45.667"/>
			
				<rect x="366.334" y="228.564" transform="matrix(-1.836970e-16 1 -1 -1.836970e-16 663.3568 -73.932)" style="fill:#E0E0E0;" width="4.62" height="132.297"/>
			
				<rect x="333.26" y="116.27" transform="matrix(-1.836970e-16 1 -1 -1.836970e-16 484.9139 -186.2262)" style="fill:#E0E0E0;" width="4.62" height="66.149"/>
			
				<rect x="399.409" y="116.27" transform="matrix(-1.836970e-16 1 -1 -1.836970e-16 551.0626 -252.3748)" style="fill:#E0E0E0;" width="4.62" height="66.149"/>
			
				<rect x="366.334" y="273.874" transform="matrix(-1.836970e-16 1 -1 -1.836970e-16 708.6669 -28.6218)" style="fill:#E0E0E0;" width="4.62" height="132.297"/>
			<path style="fill:#F5F5F5;" d="M434.793,142.724h-2.31H304.806h-2.31h-2.31v240.604h2.31h2.31h127.677h2.31h2.31V142.724H434.793
				z M432.483,292.833v40.627H304.806v-40.627H432.483z M370.954,288.212V147.344h61.528v140.868H370.954z M366.334,147.344v140.868
				h-61.528V147.344H366.334z M304.806,378.708V338.08h127.677v40.628H304.806z"/>
			<g>
				<path style="fill:#E0E0E0;" d="M359.152,210.682c0-1.566-1.269-2.835-2.835-2.835c-1.566,0-2.835,1.269-2.835,2.835
					c0,0.794,0,8.876,0,9.669c0,1.566,1.269,2.835,2.835,2.835c1.565,0,2.835-1.269,2.835-2.835
					C359.152,219.494,359.152,211.539,359.152,210.682z"/>
				<path style="fill:#F5F5F5;" d="M361.152,210.682c0-1.566-1.269-2.835-2.835-2.835c-1.566,0-2.835,1.269-2.835,2.835
					c0,0.794,0,8.876,0,9.669c0,1.566,1.269,2.835,2.835,2.835c1.565,0,2.835-1.269,2.835-2.835
					C361.152,219.494,361.152,211.539,361.152,210.682z"/>
			</g>
			<g>
				<path style="fill:#E0E0E0;" d="M361.81,308.998c-1.565,0-2.835,1.269-2.835,2.835c0,1.566,1.269,2.835,2.835,2.835
					c0.794,0,8.876,0,9.669,0c1.565,0,2.835-1.269,2.835-2.835c0-1.565-1.269-2.835-2.835-2.835
					C370.622,308.998,362.667,308.998,361.81,308.998z"/>
				<path style="fill:#F5F5F5;" d="M363.81,308.998c-1.565,0-2.835,1.269-2.835,2.835c0,1.566,1.269,2.835,2.835,2.835
					c0.794,0,8.876,0,9.669,0c1.565,0,2.835-1.269,2.835-2.835c0-1.565-1.269-2.835-2.835-2.835
					C372.622,308.998,364.667,308.998,363.81,308.998z"/>
			</g>
			<g>
				<path style="fill:#E0E0E0;" d="M361.81,355.665c-1.565,0-2.835,1.269-2.835,2.835c0,1.566,1.269,2.835,2.835,2.835
					c0.794,0,8.876,0,9.669,0c1.565,0,2.835-1.269,2.835-2.835c0-1.566-1.269-2.835-2.835-2.835
					C370.622,355.665,362.667,355.665,361.81,355.665z"/>
				<path style="fill:#F5F5F5;" d="M363.81,355.665c-1.565,0-2.835,1.269-2.835,2.835c0,1.566,1.269,2.835,2.835,2.835
					c0.794,0,8.876,0,9.669,0c1.565,0,2.835-1.269,2.835-2.835c0-1.566-1.269-2.835-2.835-2.835
					C372.622,355.665,364.667,355.665,363.81,355.665z"/>
			</g>
			<g>
				<path style="fill:#E0E0E0;" d="M379.983,210.682c0-1.566-1.269-2.835-2.835-2.835c-1.565,0-2.835,1.269-2.835,2.835
					c0,0.794,0,8.876,0,9.669c0,1.566,1.269,2.835,2.835,2.835c1.566,0,2.835-1.269,2.835-2.835
					C379.983,219.494,379.983,211.539,379.983,210.682z"/>
				<path style="fill:#F5F5F5;" d="M381.983,210.682c0-1.566-1.269-2.835-2.835-2.835c-1.565,0-2.835,1.269-2.835,2.835
					c0,0.794,0,8.876,0,9.669c0,1.566,1.269,2.835,2.835,2.835c1.566,0,2.835-1.269,2.835-2.835
					C381.983,219.494,381.983,211.539,381.983,210.682z"/>
			</g>
		</g>
		<g>
			<path style="fill:#FAFAFA;" d="M322.068,152.408h-7.987l-1.84,1.84v20.729h11.668v-20.729L322.068,152.408z M318.074,155.527
				c-0.553,0-1.001-0.448-1.001-1.001c0-0.553,0.448-1.001,1.001-1.001c0.553,0,1.001,0.448,1.001,1.001
				C319.075,155.079,318.627,155.527,318.074,155.527z"/>
			<rect x="312.24" y="166.81" style="fill:#E0E0E0;" width="11.668" height="8.168"/>
			<g>
				<path style="fill:#E0E0E0;" d="M319.64,163.299c-0.271,0.264-0.662,0.428-1.173,0.491v0.759h-0.677v-0.739
					c-0.335-0.018-0.653-0.077-0.956-0.176c-0.303-0.099-0.547-0.221-0.732-0.366l0.373-0.827c0.172,0.127,0.373,0.233,0.603,0.318
					s0.468,0.14,0.712,0.163v-1.132c-0.321-0.077-0.592-0.163-0.814-0.258c-0.221-0.095-0.406-0.234-0.556-0.417
					c-0.149-0.183-0.224-0.426-0.224-0.729c0-0.375,0.137-0.697,0.41-0.966c0.273-0.269,0.668-0.432,1.183-0.491v-0.752h0.677v0.738
					c0.556,0.045,1.014,0.183,1.376,0.414l-0.339,0.833c-0.339-0.194-0.684-0.312-1.037-0.352v1.152
					c0.316,0.073,0.584,0.155,0.803,0.247c0.219,0.093,0.404,0.23,0.552,0.414c0.149,0.183,0.224,0.423,0.224,0.722
					C320.046,162.718,319.911,163.035,319.64,163.299z M317.417,160.612c0.086,0.072,0.21,0.133,0.373,0.183v-0.962
					c-0.172,0.041-0.298,0.105-0.38,0.193c-0.081,0.088-0.122,0.191-0.122,0.308C317.288,160.447,317.331,160.54,317.417,160.612z
					 M318.833,162.72c0.081-0.081,0.122-0.178,0.122-0.292s-0.042-0.206-0.125-0.278c-0.083-0.072-0.205-0.135-0.363-0.19v0.935
					C318.63,162.86,318.752,162.801,318.833,162.72z"/>
			</g>
		</g>
	</g>
</g>
<g id="Background_Simple" style="display:none;">
	<g style="display:inline;">
		<g>
			<path style="fill:#407BFF;" d="M295.32,365.103c23.114-2.638,46.422-3.845,69.494-7.099c21.742-3.067,53.086-7.19,63.698-29.703
				c27.786-58.947-67.378-97.142-107.35-109.397c-29.435-9.024-46.523-25.897-65.826-48.798
				c-25.549-30.311-57.201-45.366-96.227-50.632c-45.979-6.205-87.619,23.187-94.458,69.725
				c-7.985,54.334,25.871,107.532,66.035,140.898C175.429,367.267,239.684,371.452,295.32,365.103z"/>
			<path style="opacity:0.9;fill:#FFFFFF;" d="M295.32,365.103c23.114-2.638,46.422-3.845,69.494-7.099
				c21.742-3.067,53.086-7.19,63.698-29.703c27.786-58.947-67.378-97.142-107.35-109.397c-29.435-9.024-46.523-25.897-65.826-48.798
				c-25.549-30.311-57.201-45.366-96.227-50.632c-45.979-6.205-87.619,23.187-94.458,69.725
				c-7.985,54.334,25.871,107.532,66.035,140.898C175.429,367.267,239.684,371.452,295.32,365.103z"/>
		</g>
	</g>
</g>
<g id="Shadow">
	<ellipse id="_x3C_Path_x3E__1_" style="fill:#F5F5F5;" cx="250" cy="412.391" rx="193.889" ry="11.323"/>
</g>
<g id="Drawer">
	<g>
		<g>
			<g>
				<g>
					<polygon style="fill:#263238;" points="74.569,378.09 103.774,378.09 111.382,411.213 114.134,411.213 107.692,374.172 
						70.651,374.172 64.209,411.213 66.961,411.213 					"/>
					<polygon style="opacity:0.4;fill:#FFFFFF;" points="74.569,378.09 103.774,378.09 111.382,411.213 114.134,411.213 
						107.692,374.172 70.651,374.172 64.209,411.213 66.961,411.213 					"/>
				</g>
				<g>
					<polygon style="fill:#263238;" points="104.569,378.09 133.774,378.09 141.382,411.213 144.135,411.213 137.693,374.172 
						100.651,374.172 94.209,411.213 96.961,411.213 					"/>
					<polygon style="opacity:0.6;fill:#FFFFFF;" points="104.569,378.09 133.774,378.09 141.382,411.213 144.135,411.213 
						137.693,374.172 100.651,374.172 94.209,411.213 96.961,411.213 					"/>
				</g>
			</g>
			<rect x="89.172" y="332.228" style="fill:#407BFF;" width="60" height="54.15"/>
			<rect x="89.172" y="332.228" style="opacity:0.5;fill:#FFFFFF;" width="60" height="54.15"/>
			<rect x="60.672" y="332.228" style="fill:#407BFF;" width="28.5" height="54.15"/>
			<rect x="60.672" y="332.228" style="opacity:0.5;fill:#FFFFFF;" width="28.5" height="54.15"/>
			<rect x="60.672" y="332.228" style="opacity:0.1;" width="28.5" height="54.15"/>
			<rect x="93.672" y="336.728" style="opacity:0.7;fill:#FFFFFF;" width="51" height="20.325"/>
			<rect x="93.672" y="361.553" style="opacity:0.7;fill:#FFFFFF;" width="51" height="20.325"/>
			<path style="fill:#263238;" d="M121.628,346.891c0,1.357-1.1,2.456-2.456,2.456c-1.356,0-2.456-1.1-2.456-2.456
				c0-1.357,1.1-2.456,2.456-2.456C120.529,344.435,121.628,345.534,121.628,346.891z"/>
			<path style="fill:#263238;" d="M121.628,371.716c0,1.356-1.1,2.456-2.456,2.456c-1.356,0-2.456-1.1-2.456-2.456
				c0-1.357,1.1-2.456,2.456-2.456C120.529,369.26,121.628,370.359,121.628,371.716z"/>
		</g>
		<g>
			<path style="fill:#263238;" d="M86.989,360.431h-7.987l-1.84,1.84v20.729h11.668v-20.729L86.989,360.431z M82.995,363.55
				c-0.553,0-1.001-0.448-1.001-1.001s0.448-1.001,1.001-1.001c0.553,0,1.001,0.448,1.001,1.001S83.548,363.55,82.995,363.55z"/>
			<path style="opacity:0.8;fill:#FFFFFF;" d="M86.989,360.431h-7.987l-1.84,1.84v20.729h11.668v-20.729L86.989,360.431z
				 M82.995,363.55c-0.553,0-1.001-0.448-1.001-1.001s0.448-1.001,1.001-1.001c0.553,0,1.001,0.448,1.001,1.001
				S83.548,363.55,82.995,363.55z"/>
			<rect x="77.161" y="374.833" style="fill:#407BFF;" width="11.668" height="8.168"/>
			<g>
				<path style="fill:#263238;" d="M84.561,371.323c-0.271,0.264-0.662,0.428-1.173,0.491v0.759h-0.677v-0.739
					c-0.335-0.018-0.653-0.077-0.956-0.176c-0.303-0.099-0.547-0.221-0.732-0.366l0.373-0.827c0.172,0.126,0.373,0.233,0.603,0.319
					c0.231,0.086,0.468,0.14,0.712,0.163v-1.132c-0.321-0.077-0.592-0.163-0.813-0.258c-0.222-0.095-0.407-0.234-0.556-0.417
					c-0.149-0.183-0.224-0.426-0.224-0.729c0-0.375,0.137-0.697,0.41-0.966c0.273-0.269,0.668-0.432,1.183-0.491v-0.752h0.677v0.738
					c0.556,0.045,1.014,0.183,1.376,0.414l-0.339,0.833c-0.339-0.194-0.684-0.312-1.037-0.352v1.152
					c0.316,0.073,0.584,0.155,0.803,0.247c0.219,0.093,0.403,0.23,0.552,0.414c0.149,0.183,0.224,0.424,0.224,0.722
					C84.967,370.741,84.832,371.058,84.561,371.323z M82.338,368.635c0.086,0.072,0.21,0.133,0.373,0.183v-0.962
					c-0.172,0.041-0.298,0.105-0.38,0.193c-0.081,0.088-0.122,0.191-0.122,0.308C82.209,368.471,82.252,368.563,82.338,368.635z
					 M83.754,370.743c0.081-0.081,0.122-0.178,0.122-0.292c0-0.113-0.042-0.206-0.125-0.278c-0.084-0.072-0.205-0.135-0.363-0.19
					v0.935C83.551,370.883,83.673,370.825,83.754,370.743z"/>
			</g>
		</g>
	</g>
</g>
<g id="Clock">
	<g>
		<g>
			<path style="fill:#263238;" d="M69.876,326.346h-7.987l-1.84,1.841v20.729h11.668v-20.729L69.876,326.346z M65.883,329.464
				c-0.553,0-1.001-0.448-1.001-1.001c0-0.553,0.448-1.001,1.001-1.001c0.553,0,1.001,0.448,1.001,1.001
				C66.883,329.016,66.435,329.464,65.883,329.464z"/>
			<path style="opacity:0.8;fill:#FFFFFF;" d="M69.876,326.346h-7.987l-1.84,1.841v20.729h11.668v-20.729L69.876,326.346z
				 M65.883,329.464c-0.553,0-1.001-0.448-1.001-1.001c0-0.553,0.448-1.001,1.001-1.001c0.553,0,1.001,0.448,1.001,1.001
				C66.883,329.016,66.435,329.464,65.883,329.464z"/>
			<rect x="60.048" y="340.747" style="fill:#407BFF;" width="11.668" height="8.168"/>
			<g>
				<path style="fill:#263238;" d="M67.448,337.237c-0.271,0.264-0.662,0.428-1.172,0.491v0.759h-0.678v-0.739
					c-0.334-0.018-0.653-0.077-0.956-0.176c-0.303-0.099-0.547-0.221-0.732-0.366l0.373-0.827c0.172,0.127,0.373,0.233,0.603,0.319
					c0.231,0.086,0.468,0.14,0.712,0.163v-1.132c-0.321-0.077-0.592-0.163-0.813-0.258c-0.221-0.095-0.407-0.234-0.556-0.417
					c-0.149-0.183-0.224-0.426-0.224-0.729c0-0.375,0.137-0.697,0.41-0.966c0.273-0.269,0.668-0.432,1.183-0.491v-0.752h0.678v0.738
					c0.556,0.045,1.014,0.183,1.376,0.414l-0.339,0.833c-0.339-0.194-0.684-0.312-1.037-0.352v1.152
					c0.316,0.072,0.584,0.155,0.803,0.247c0.219,0.093,0.403,0.231,0.552,0.414c0.149,0.183,0.224,0.424,0.224,0.722
					C67.855,336.656,67.719,336.973,67.448,337.237z M65.225,334.55c0.086,0.073,0.21,0.133,0.373,0.183v-0.962
					c-0.172,0.041-0.298,0.105-0.38,0.193c-0.081,0.088-0.122,0.191-0.122,0.308C65.096,334.385,65.139,334.478,65.225,334.55z
					 M66.642,336.658c0.081-0.081,0.122-0.178,0.122-0.292s-0.042-0.206-0.126-0.278c-0.084-0.072-0.205-0.135-0.363-0.19v0.935
					C66.438,336.798,66.56,336.739,66.642,336.658z"/>
			</g>
		</g>
		<g>
			<path style="fill:#263238;" d="M65.703,328.381l0.459,0.199c2.457-5.652,5.937-8.086,8.424-9.133
				c2.695-1.134,4.84-0.932,4.862-0.93l0.051-0.497C79.41,318.011,70.552,317.225,65.703,328.381z"/>
		</g>
	</g>
	<g>
		<g>
			<path style="fill:#407BFF;" d="M90.425,332.319h2.976c1.092,0,1.639-1.321,0.867-2.093l-3.843-3.843V332.319z"/>
			<path style="fill:#407BFF;" d="M86.987,306.131c-1.012,0-4.866,0-5.877,0c-7.232,0-13.094,5.862-13.094,13.094
				c0,7.232,5.863,13.094,13.094,13.094c1.012,0,4.865,0,5.877,0c7.232,0,13.094-5.862,13.094-13.094
				C100.081,311.993,94.219,306.131,86.987,306.131z"/>
			<path style="opacity:0.3;fill:#FFFFFF;" d="M86.987,306.131c-1.012,0-4.866,0-5.877,0c-7.232,0-13.094,5.862-13.094,13.094
				c0,7.232,5.863,13.094,13.094,13.094c1.012,0,4.865,0,5.877,0c7.232,0,13.094-5.862,13.094-13.094
				C100.081,311.993,94.219,306.131,86.987,306.131z"/>
			
				<ellipse transform="matrix(0.7071 -0.7071 0.7071 0.7071 -200.2484 155.008)" style="fill:#407BFF;" cx="86.987" cy="319.225" rx="13.094" ry="13.094"/>
			
				<ellipse transform="matrix(0.7071 -0.7071 0.7071 0.7071 -200.2484 155.008)" style="opacity:0.5;fill:#FFFFFF;" cx="86.987" cy="319.225" rx="13.094" ry="13.094"/>
			<circle style="fill:#407BFF;" cx="86.987" cy="319.225" r="10.532"/>
			<path style="fill:#407BFF;" d="M75.852,329.107l-1.119,1.119c-0.772,0.772-0.225,2.093,0.867,2.093h2.976v-1.392
				C77.589,330.434,76.676,329.823,75.852,329.107z"/>
			<polygon style="fill:#263238;" points="88.002,320.241 85.972,320.241 86.972,312.21 87.002,312.21 			"/>
			<polygon style="fill:#263238;" points="86.41,321.256 86.41,319.225 92.44,320.225 92.44,320.256 			"/>
		</g>
	</g>
</g>
<g id="Lamp">
	<g>
		<g>
			<path style="fill:#263238;" d="M140.706,303.462h-7.987l-1.84,1.84v20.729h11.668v-20.729L140.706,303.462z M136.712,306.581
				c-0.553,0-1.001-0.448-1.001-1.001s0.448-1.001,1.001-1.001c0.553,0,1.001,0.448,1.001,1.001S137.265,306.581,136.712,306.581z"
				/>
			<path style="opacity:0.8;fill:#FFFFFF;" d="M140.706,303.462h-7.987l-1.84,1.84v20.729h11.668v-20.729L140.706,303.462z
				 M136.712,306.581c-0.553,0-1.001-0.448-1.001-1.001s0.448-1.001,1.001-1.001c0.553,0,1.001,0.448,1.001,1.001
				S137.265,306.581,136.712,306.581z"/>
			<rect x="130.878" y="317.864" style="fill:#407BFF;" width="11.668" height="8.168"/>
			<g>
				<path style="fill:#263238;" d="M138.278,314.354c-0.271,0.264-0.662,0.428-1.173,0.491v0.759h-0.678v-0.739
					c-0.335-0.018-0.653-0.077-0.956-0.176c-0.303-0.099-0.547-0.221-0.732-0.366l0.373-0.827c0.172,0.127,0.373,0.233,0.603,0.319
					c0.231,0.086,0.468,0.14,0.712,0.163v-1.132c-0.321-0.077-0.592-0.163-0.813-0.258c-0.221-0.095-0.407-0.234-0.556-0.417
					c-0.149-0.183-0.224-0.426-0.224-0.729c0-0.375,0.137-0.697,0.41-0.966c0.273-0.269,0.668-0.432,1.183-0.491v-0.752h0.678v0.738
					c0.556,0.045,1.014,0.183,1.376,0.414l-0.339,0.833c-0.339-0.194-0.684-0.312-1.037-0.352v1.152
					c0.316,0.073,0.584,0.155,0.803,0.247c0.219,0.093,0.403,0.231,0.552,0.414c0.149,0.183,0.224,0.424,0.224,0.722
					C138.684,313.772,138.549,314.089,138.278,314.354z M136.055,311.666c0.086,0.073,0.21,0.133,0.373,0.183v-0.962
					c-0.172,0.041-0.298,0.105-0.38,0.193c-0.081,0.088-0.122,0.191-0.122,0.308C135.926,311.502,135.969,311.595,136.055,311.666z
					 M137.471,313.774c0.081-0.081,0.122-0.178,0.122-0.292s-0.042-0.206-0.126-0.278c-0.084-0.072-0.205-0.135-0.363-0.19v0.935
					C137.268,313.914,137.39,313.856,137.471,313.774z"/>
			</g>
		</g>
		<g>
			<path style="fill:#263238;" d="M137.122,305.497l-0.459,0.199c-2.457-5.652-5.937-8.086-8.424-9.133
				c-2.695-1.134-4.84-0.932-4.862-0.93l-0.051-0.497C123.415,295.127,132.273,294.341,137.122,305.497z"/>
		</g>
	</g>
	<g>
		<g>
			<g>
				<path style="fill:#263238;" d="M111.409,330.36h-2.613v-25.428c0-1.49,0.592-2.92,1.646-3.974l11.038-11.038l1.847,1.847
					l-10.272,10.272c-1.054,1.054-1.646,2.483-1.646,3.974V330.36z"/>
			</g>
			<g style="opacity:0.5;">
				<path style="fill:#FFFFFF;" d="M111.409,330.36h-2.613v-25.428c0-1.49,0.592-2.92,1.646-3.974l11.038-11.038l1.847,1.847
					l-10.272,10.272c-1.054,1.054-1.646,2.483-1.646,3.974V330.36z"/>
			</g>
			<rect x="108.796" y="326.441" style="opacity:0.2;" width="2.613" height="3.919"/>
			<path style="opacity:0.2;" d="M117.28,297.814l6.047-6.046l-1.847-1.847l-4.288,4.288
				C117.214,295.1,117.246,296.417,117.28,297.814z"/>
			<path style="fill:#407BFF;" d="M124.472,332.319H95.733l0,0c0-2.164,1.755-3.919,3.919-3.919h20.901
				C122.717,328.4,124.472,330.155,124.472,332.319L124.472,332.319z"/>
			<path style="opacity:0.3;fill:#FFFFFF;" d="M124.472,332.319H95.733l0,0c0-2.164,1.755-3.919,3.919-3.919h20.901
				C122.717,328.4,124.472,330.155,124.472,332.319L124.472,332.319z"/>
			<path style="fill:#407BFF;" d="M134.562,291.019c-0.452-4.305-4.309-7.428-8.614-6.976c-4.305,0.452-7.428,4.309-6.976,8.614
				l0.113,1.07c0.057,0.543,1.125,10.701,1.182,11.244c0.088,0.837,3.649,1.149,7.954,0.696c4.305-0.452,7.724-1.498,7.636-2.335
				c-0.057-0.543-1.125-10.701-1.182-11.244L134.562,291.019z"/>
			<path style="opacity:0.3;fill:#FFFFFF;" d="M134.562,291.019c-0.452-4.305-4.309-7.428-8.614-6.976
				c-4.305,0.452-7.428,4.309-6.976,8.614l0.113,1.07c0.057,0.543,1.125,10.701,1.182,11.244c0.088,0.837,3.649,1.149,7.954,0.696
				c4.305-0.452,7.724-1.498,7.636-2.335c-0.057-0.543-1.125-10.701-1.182-11.244L134.562,291.019z"/>
			<g>
				<path style="fill:#407BFF;" d="M135.856,303.334c0.088,0.837-3.331,1.883-7.636,2.335c-4.305,0.452-7.866,0.141-7.954-0.696
					c-0.088-0.837,3.331-1.882,7.636-2.335C132.207,302.185,135.768,302.497,135.856,303.334z"/>
			</g>
		</g>
	</g>
</g>
<g id="Shelf">
	<g>
		<g>
			<g>
				<path style="fill:#263238;" d="M360.068,230.886h29.113v180.327h-49.477L360.068,230.886z M386.318,233.749h-23.692
					L342.908,408.35h43.41V233.749z"/>
			</g>
			<g style="opacity:0.4;">
				<path style="fill:#FFFFFF;" d="M360.068,230.886h29.113v180.327h-49.477L360.068,230.886z M386.318,233.749h-23.692
					L342.908,408.35h43.41V233.749z"/>
			</g>
		</g>
		<g>
			<g>
				<rect x="347.782" y="274.776" style="fill:#407BFF;" width="73.324" height="3.817"/>
			</g>
			<g style="opacity:0.5;">
				<rect x="347.782" y="274.776" style="fill:#FFFFFF;" width="73.324" height="3.817"/>
			</g>
			<g style="opacity:0.2;">
				<rect x="381.103" y="274.776" width="40.002" height="3.817"/>
			</g>
		</g>
		<g>
			<g>
				<rect x="345.634" y="319.141" style="fill:#407BFF;" width="75.471" height="3.817"/>
			</g>
			<g style="opacity:0.5;">
				<rect x="345.634" y="319.141" style="fill:#FFFFFF;" width="75.471" height="3.817"/>
			</g>
			<g style="opacity:0.2;">
				<rect x="378.956" y="319.141" width="42.149" height="3.817"/>
			</g>
		</g>
		<g>
			<g>
				<rect x="343.487" y="363.507" style="fill:#407BFF;" width="77.618" height="3.817"/>
			</g>
			<g style="opacity:0.5;">
				<rect x="343.487" y="363.507" style="fill:#FFFFFF;" width="77.618" height="3.817"/>
			</g>
			<g style="opacity:0.2;">
				<rect x="376.809" y="363.507" width="44.297" height="3.817"/>
			</g>
		</g>
		<g>
			<g>
				<path style="fill:#263238;" d="M393.423,230.886h29.113v180.327H373.06L393.423,230.886z M419.674,233.749h-23.692
					L376.264,408.35h43.41V233.749z"/>
			</g>
			<g style="opacity:0.6;">
				<path style="fill:#FFFFFF;" d="M393.423,230.886h29.113v180.327H373.06L393.423,230.886z M419.674,233.749h-23.692
					L376.264,408.35h43.41V233.749z"/>
			</g>
		</g>
		<g>
			<path style="fill:#263238;" d="M380.861,222.011l3.974-6.928l-0.681-2.512l-17.981-10.314l-5.806,10.121l17.981,10.314
				L380.861,222.011z M380.143,216.995c0.275-0.479,0.887-0.645,1.366-0.37c0.479,0.275,0.645,0.887,0.37,1.366
				c-0.275,0.479-0.887,0.645-1.366,0.37C380.034,218.086,379.868,217.474,380.143,216.995z"/>
			<path style="opacity:0.8;fill:#FFFFFF;" d="M380.861,222.011l3.974-6.928l-0.681-2.512l-17.981-10.314l-5.806,10.121
				l17.981,10.314L380.861,222.011z M380.143,216.995c0.275-0.479,0.887-0.645,1.366-0.37c0.479,0.275,0.645,0.887,0.37,1.366
				c-0.275,0.479-0.887,0.645-1.366,0.37C380.034,218.086,379.868,217.474,380.143,216.995z"/>
			
				<rect x="360.979" y="205.265" transform="matrix(0.4976 -0.8674 0.8674 0.4976 2.7009 423.3608)" style="fill:#407BFF;" width="11.668" height="8.168"/>
			<g>
				<path style="fill:#263238;" d="M372.622,214.486c-0.094-0.367-0.042-0.787,0.157-1.262l-0.658-0.378l0.337-0.588l0.641,0.368
					c0.182-0.281,0.391-0.528,0.628-0.741c0.237-0.213,0.464-0.364,0.682-0.453l0.532,0.735c-0.195,0.086-0.387,0.207-0.576,0.365
					c-0.189,0.157-0.354,0.336-0.495,0.536l0.982,0.563c0.226-0.24,0.436-0.433,0.628-0.577c0.192-0.145,0.405-0.236,0.638-0.274
					c0.233-0.038,0.481,0.018,0.743,0.168c0.325,0.187,0.536,0.465,0.634,0.836c0.097,0.371,0.043,0.794-0.163,1.27l0.653,0.374
					l-0.337,0.588l-0.641-0.367c-0.316,0.46-0.663,0.789-1.043,0.988l-0.554-0.709c0.337-0.197,0.611-0.439,0.822-0.724
					l-0.999-0.573c-0.22,0.238-0.425,0.43-0.614,0.574c-0.189,0.144-0.401,0.235-0.634,0.273c-0.233,0.038-0.479-0.017-0.737-0.165
					C372.924,215.128,372.716,214.852,372.622,214.486z M376.059,213.895c-0.106,0.038-0.22,0.116-0.344,0.232l0.835,0.479
					c0.05-0.169,0.057-0.311,0.021-0.426c-0.036-0.114-0.105-0.201-0.207-0.259C376.266,213.865,376.164,213.856,376.059,213.895z
					 M373.526,214.074c0.03,0.111,0.094,0.195,0.192,0.251c0.098,0.056,0.199,0.066,0.303,0.03c0.104-0.037,0.219-0.11,0.345-0.22
					l-0.811-0.465C373.505,213.828,373.496,213.963,373.526,214.074z"/>
			</g>
		</g>
		<g>
			<path style="fill:#263238;" d="M384.579,234.169l-0.475-0.158c1.949-5.847,0.987-9.983-0.164-12.423
				c-1.247-2.645-2.978-3.928-2.996-3.94l0.294-0.404C381.311,217.294,388.426,222.628,384.579,234.169z"/>
		</g>
	</g>
</g>
<g id="Sofa">
	<g>
		<g>
			<g>
				<path style="fill:#407BFF;" d="M298.039,323.642c-4.176,0-44.459,0-48.635,0c-5.596,0-10.132,4.536-10.132,10.132v77.439h68.9
					v-77.439C308.171,328.178,303.635,323.642,298.039,323.642z"/>
				<path style="opacity:0.5;fill:#FFFFFF;" d="M298.039,323.642c-4.176,0-44.459,0-48.635,0c-5.596,0-10.132,4.536-10.132,10.132
					v77.439h68.9v-77.439C308.171,328.178,303.635,323.642,298.039,323.642z"/>
				<path style="opacity:0.1;" d="M298.039,323.642c-4.176,0-44.459,0-48.635,0c-5.596,0-10.132,4.536-10.132,10.132v77.439h68.9
					v-77.439C308.171,328.178,303.635,323.642,298.039,323.642z"/>
				<path style="fill:#407BFF;" d="M308.171,411.213h-20.265v-78.822c0-4.833,3.918-8.75,8.75-8.75h2.765
					c4.833,0,8.75,3.917,8.75,8.75V411.213z"/>
				<path style="opacity:0.6;fill:#FFFFFF;" d="M308.171,411.213h-20.265v-78.822c0-4.833,3.918-8.75,8.75-8.75h2.765
					c4.833,0,8.75,3.917,8.75,8.75V411.213z"/>
			</g>
			<g>
				<path style="fill:#407BFF;" d="M248.816,376.702l-10.883-77.439c-0.786-5.596-5.96-10.132-11.556-10.132
					c-4.523,0-43.451,0-47.974,0c-5.596,0-9.495,4.536-8.708,10.132l10.883,77.439H248.816z"/>
				<path style="opacity:0.5;fill:#FFFFFF;" d="M248.816,376.702l-10.883-77.439c-0.786-5.596-5.96-10.132-11.556-10.132
					c-4.523,0-43.451,0-47.974,0c-5.596,0-9.495,4.536-8.708,10.132l10.883,77.439H248.816z"/>
				<path style="opacity:0.1;" d="M200.842,376.702h-20.265l-10.883-77.439c-0.786-5.596,3.112-10.132,8.708-10.132l0,0
					c5.596,0,10.77,4.536,11.556,10.132L200.842,376.702z"/>
			</g>
			<g>
				<path style="fill:#407BFF;" d="M295.997,370.394h-59.042v-15.054h59.042c1.927,0,3.49,1.562,3.49,3.49v8.074
					C299.487,368.832,297.924,370.394,295.997,370.394z"/>
				<path style="opacity:0.7;fill:#FFFFFF;" d="M295.997,370.394h-59.042v-15.054h59.042c1.927,0,3.49,1.562,3.49,3.49v8.074
					C299.487,368.832,297.924,370.394,295.997,370.394z"/>
			</g>
			<rect x="236.955" y="370.394" style="fill:#407BFF;" width="57.899" height="40.819"/>
			<rect x="236.955" y="370.394" style="opacity:0.5;fill:#FFFFFF;" width="57.899" height="40.819"/>
			<g>
				<g>
					<path style="fill:#263238;" d="M257.769,337.32h-7.987l-1.84,1.84v20.729h11.668v-20.729L257.769,337.32z M253.776,340.439
						c-0.553,0-1.001-0.448-1.001-1.001s0.448-1.001,1.001-1.001c0.553,0,1.001,0.448,1.001,1.001S254.328,340.439,253.776,340.439z
						"/>
					<path style="opacity:0.8;fill:#FFFFFF;" d="M257.769,337.32h-7.987l-1.84,1.84v20.729h11.668v-20.729L257.769,337.32z
						 M253.776,340.439c-0.553,0-1.001-0.448-1.001-1.001s0.448-1.001,1.001-1.001c0.553,0,1.001,0.448,1.001,1.001
						S254.328,340.439,253.776,340.439z"/>
					<rect x="247.941" y="351.722" style="fill:#407BFF;" width="11.668" height="8.168"/>
					<g>
						<path style="fill:#263238;" d="M255.341,348.212c-0.271,0.264-0.662,0.428-1.173,0.491v0.759h-0.678v-0.739
							c-0.335-0.018-0.653-0.077-0.956-0.176c-0.303-0.099-0.547-0.221-0.732-0.366l0.373-0.827
							c0.172,0.127,0.373,0.233,0.603,0.318c0.231,0.086,0.468,0.14,0.712,0.163v-1.132c-0.321-0.077-0.592-0.163-0.814-0.258
							c-0.221-0.095-0.406-0.234-0.556-0.417c-0.149-0.183-0.224-0.426-0.224-0.729c0-0.375,0.137-0.697,0.41-0.966
							c0.273-0.269,0.668-0.432,1.183-0.491v-0.752h0.678v0.738c0.556,0.045,1.014,0.183,1.376,0.414l-0.339,0.833
							c-0.339-0.194-0.684-0.312-1.037-0.352v1.152c0.316,0.073,0.584,0.155,0.803,0.247c0.219,0.093,0.403,0.231,0.552,0.414
							c0.149,0.183,0.224,0.424,0.224,0.722C255.748,347.63,255.612,347.947,255.341,348.212z M253.118,345.524
							c0.086,0.073,0.21,0.134,0.373,0.183v-0.962c-0.172,0.041-0.298,0.105-0.38,0.193c-0.081,0.088-0.122,0.191-0.122,0.308
							C252.99,345.36,253.032,345.452,253.118,345.524z M254.535,347.632c0.081-0.081,0.122-0.178,0.122-0.292
							s-0.042-0.206-0.126-0.278c-0.084-0.072-0.205-0.135-0.363-0.19v0.935C254.331,347.772,254.453,347.714,254.535,347.632z"/>
					</g>
				</g>
				<g>
					<path style="fill:#263238;" d="M254.186,339.355l-0.459,0.199c-2.457-5.652-5.937-8.086-8.424-9.133
						c-2.695-1.134-4.84-0.932-4.862-0.93l-0.051-0.497C240.479,328.985,249.336,328.199,254.186,339.355z"/>
				</g>
			</g>
			<g>
				<path style="fill:#407BFF;" d="M233.192,323.642c-4.176,0-44.459,0-48.635,0c-5.596,0-10.132,4.536-10.132,10.132v77.439h68.9
					v-77.439C243.324,328.178,238.788,323.642,233.192,323.642z"/>
				<path style="opacity:0.5;fill:#FFFFFF;" d="M233.192,323.642c-4.176,0-44.459,0-48.635,0c-5.596,0-10.132,4.536-10.132,10.132
					v77.439h68.9v-77.439C243.324,328.178,238.788,323.642,233.192,323.642z"/>
				<path style="opacity:0.1;" d="M233.192,323.642c-4.176,0-44.459,0-48.635,0c-5.596,0-10.132,4.536-10.132,10.132v77.439h68.9
					v-77.439C243.324,328.178,238.788,323.642,233.192,323.642z"/>
				<path style="fill:#407BFF;" d="M243.324,411.213h-20.265v-78.822c0-4.833,3.918-8.75,8.75-8.75h2.765
					c4.832,0,8.75,3.917,8.75,8.75V411.213z"/>
				<path style="opacity:0.6;fill:#FFFFFF;" d="M243.324,411.213h-20.265v-78.822c0-4.833,3.918-8.75,8.75-8.75h2.765
					c4.832,0,8.75,3.917,8.75,8.75V411.213z"/>
			</g>
		</g>
	</g>
</g>
<g id="Character_2">
	<g>
		<path style="fill:#263238;" d="M315.926,180.359c0,0-7.685,0.805-9.972,9.084c0,0-6.495,1.875-4.025,8.004
			c0,0-5.581,5.764,1.098,10.887c0,0-0.915,7.776,6.953,4.3c0,0,3.304,4.863,9.849,0.895c0,0,5.612,3.314,8.997-1.169
			c0,0,3.938,0.549,3.387-3.934c0,0,3.602-2.443-0.35-6.482C327.911,197.904,315.926,180.359,315.926,180.359z"/>
		<g>
			<g>
				<path style="fill:#FFB573;" d="M361.713,215.831l-0.177-4.513l7.318,1.167c0,0-0.701,4.386-3.204,6.791l-0.912-0.337
					C363.255,218.391,362.142,217.248,361.713,215.831z"/>
				<path style="fill:#FFB573;" d="M365.238,207.995l2.479,0.734c1.13,0.335,1.779,1.517,1.454,2.65l-0.317,1.107l-7.318-1.167
					l1.194-2.266C363.207,208.147,364.257,207.704,365.238,207.995z"/>
			</g>
			<path style="fill:#FFB573;" d="M364.827,226.69l2.507-9.728l-5.622-1.132c0,0-0.331,4.555-5.522,11.087l7.424,3.221
				L364.827,226.69z"/>
		</g>
		<path style="fill:#407BFF;" d="M360.333,217.677c-1.424,2.608-2.836,5.229-4.289,7.678c-0.936,1.609-1.941,3.16-2.904,4.446
			c-0.195,0.257-0.392,0.498-0.584,0.72c-0.247-0.052-0.495-0.111-0.741-0.182c-0.609-0.2-1.227-0.383-1.842-0.68
			c-1.229-0.563-2.468-1.335-3.687-2.253c-1.205-0.942-2.409-2.001-3.536-3.189c-0.572-0.583-1.114-1.205-1.654-1.821l-0.775-0.935
			l-0.631-0.792l-0.429-0.539c-2.117-2.641-5.942-3.259-8.798-1.332c-3.008,2.029-3.802,6.113-1.772,9.121l0.595,0.881l0.531,0.74
			c0.355,0.483,0.725,0.936,1.095,1.392c0.741,0.907,1.537,1.759,2.359,2.596c1.658,1.656,3.479,3.206,5.526,4.558
			c2.042,1.358,4.309,2.537,6.815,3.354c1.242,0.42,2.559,0.736,3.897,0.933c0.673,0.095,1.349,0.169,2.035,0.199
			c0.34,0.026,0.683,0.034,1.027,0.03l0.515-0.001l0.257-0.002l0.538-0.017c2.249-0.159,3.596-1.056,4.497-1.703
			c0.913-0.691,1.499-1.342,1.995-1.951c0.97-1.214,1.589-2.3,2.161-3.364c1.11-2.114,1.854-4.148,2.549-6.167
			c0.912-2.8,1.627-5.559,2.172-8.372C364.152,220.079,361.719,218.629,360.333,217.677z"/>
		<path style="opacity:0.2;" d="M338.706,225.385l-2.561,1.921l-1.951,7.105c1.408,1.322,2.927,2.568,4.604,3.675
			c1.922,1.279,4.053,2.387,6.387,3.196c2.285-4.796-2.49-12.041-2.49-12.041L338.706,225.385z"/>
		<g>
			<polygon style="fill:#FFB573;" points="314.142,393.83 314.828,405.151 321.415,405.151 323.412,393.007 			"/>
			<path style="opacity:0.2;" d="M314.542,400.428c1.399,0.187,3.98,0.367,7.655-0.031l1.215-7.391l-9.27,0.823L314.542,400.428z"/>
			<g>
				<path style="fill:#407BFF;" d="M322.595,404.136c-0.067-0.013-0.12-0.064-0.135-0.131c-0.014-0.068,0.016-0.137,0.075-0.172
					c0.105-0.063,2.483-1.492,3.643-1.2c0.216,0.051,0.404,0.184,0.523,0.371c0.159,0.207,0.171,0.492,0.028,0.711
					c-0.276,0.375-1.16,0.552-2.018,0.57C324.003,404.298,323.295,404.247,322.595,404.136z M323.12,403.905
					c1.288,0.131,3.03,0.082,3.34-0.375c0.045-0.057,0.086-0.156-0.04-0.357c-0.069-0.12-0.189-0.201-0.326-0.222
					c-0.102-0.026-0.208-0.038-0.314-0.034C324.839,403.077,323.936,403.411,323.12,403.905z"/>
				<path style="fill:#407BFF;" d="M322.508,404.128c-0.05-0.031-0.08-0.087-0.077-0.146c0.007-0.087,0.151-1.953,1.015-2.695
					c0.248-0.219,0.575-0.327,0.904-0.299c0.452,0.035,0.597,0.26,0.618,0.447c0.164,0.773-1.462,2.307-2.28,2.691
					c-0.021,0.011-0.045,0.014-0.068,0.008C322.584,404.146,322.543,404.144,322.508,404.128z M324.247,401.3
					c-0.207,0.002-0.406,0.08-0.561,0.218c-0.502,0.606-0.806,1.352-0.871,2.137c0.845-0.525,1.907-1.72,1.854-2.187
					c-0.013-0.042-0.035-0.16-0.33-0.178L324.247,401.3L324.247,401.3z"/>
				<path style="fill:#263238;" d="M321.869,403.185l-7.537,0.165c-0.284,0.006-0.526,0.208-0.582,0.487l-1.228,6.161
					c-0.113,0.546,0.238,1.08,0.784,1.193c0.07,0.014,0.141,0.022,0.213,0.021c2.716-0.107,5.129-0.308,8.511-0.378
					c3.992-0.086,2.989,0.414,7.684,0.378c2.828-0.024,3.276-3.25,2.073-3.382c-5.503-0.571-6.109-2.215-8.268-4.133
					C323.05,403.33,322.463,403.147,321.869,403.185z"/>
			</g>
		</g>
		<path style="fill:#263238;" d="M311.709,262.833c0,0-1.367,24.132,2.649,62.837c-4.508,30.451-1.57,60.875-0.399,70.62
			c2.037,0.263,5.256,0.47,9.328,0.081c2.398-11.489,10.378-50.811,11.436-70.31c5.253-27.167,6.361-63.229,6.361-63.229H311.709z"
			/>
		<g>
			<path style="fill:#407BFF;" d="M312.832,395.847l0.378,2.989c0,0,5.47,0.598,10.618,0l0.815-2.989
				C324.643,395.847,318.581,396.52,312.832,395.847z"/>
		</g>
		<path style="opacity:0.4;" d="M314.358,325.671c-0.745,5.032-1.283,10.061-1.663,14.999
			c11.752-27.858,13.589-60.302,13.589-60.302l-7.547-2.013l-7.018,9.342C312.05,297.78,312.796,310.616,314.358,325.671z"/>
		<g>
			<polygon style="fill:#FFB573;" points="275.222,380.862 269.785,394.457 274.399,399.158 282.303,386.9 			"/>
			<path style="opacity:0.2;" d="M278.123,393.383l4.18-6.482l-7.081-6.038l-3.856,9.642
				C272.827,391.414,275.208,392.667,278.123,393.383z"/>
			<g>
				<path style="fill:#407BFF;" d="M275.977,398.483c-0.038-0.057-0.038-0.131-0.001-0.188c0.039-0.057,0.109-0.084,0.176-0.067
					c0.118,0.03,2.804,0.727,3.408,1.759c0.115,0.19,0.151,0.417,0.102,0.634c-0.036,0.259-0.232,0.466-0.488,0.518
					c-0.461,0.066-1.207-0.441-1.821-1.041C276.848,399.601,276.388,399.06,275.977,398.483z M276.509,398.696
					c0.809,1.011,2.064,2.22,2.607,2.121c0.072-0.007,0.171-0.048,0.227-0.279c0.037-0.133,0.011-0.276-0.07-0.388
					c-0.053-0.092-0.119-0.175-0.196-0.247C278.305,399.342,277.434,398.932,276.509,398.696z"/>
				<path style="fill:#407BFF;" d="M275.921,398.416c-0.013-0.058,0.007-0.118,0.051-0.157c0.067-0.056,1.5-1.261,2.634-1.164
					c0.33,0.024,0.636,0.181,0.847,0.436c0.291,0.347,0.233,0.608,0.114,0.754c-0.437,0.659-2.671,0.572-3.517,0.258
					c-0.023-0.007-0.041-0.023-0.053-0.043C275.962,398.482,275.935,398.452,275.921,398.416z M279.158,397.676
					c-0.147-0.146-0.341-0.234-0.548-0.247c-0.784,0.066-1.53,0.372-2.135,0.875c0.966,0.235,2.563,0.156,2.86-0.208
					c0.021-0.039,0.089-0.137-0.104-0.36L279.158,397.676L279.158,397.676z"/>
				<path style="fill:#263238;" d="M276.147,397.298l-5.397-5.263c-0.203-0.198-0.517-0.229-0.755-0.074l-5.258,3.44
					c-0.469,0.302-0.604,0.926-0.302,1.395c0.039,0.06,0.084,0.116,0.134,0.167c1.979,1.863,3.813,3.444,6.232,5.809
					c2.858,2.789,1.799,2.423,5.113,5.748c1.999,2.001,4.614,0.061,3.866-0.889c-3.447-4.327-2.698-5.911-2.842-8.796
					C276.871,398.243,276.59,397.696,276.147,397.298z"/>
			</g>
			<path style="fill:#263238;" d="M306.694,262.833c0,0-9.156,4.909-9.522,26.316c-0.173,10.087-5.818,22.779-7.079,39.748
				c-8.174,19.987-15.583,47.724-18,57.121c1.778,1.472,4.626,3.372,8.434,4.549c5.45-8.465,23.614-36.857,30.414-56.215
				c7.519-21.403,21.643-71.518,21.643-71.518H306.694z"/>
			<g>
				<path style="fill:#407BFF;" d="M271.451,385.296l-0.863,2.887c0,0,4.76,2.759,9.711,4.296l1.954-2.404
					C282.253,390.074,276.436,388.237,271.451,385.296z"/>
			</g>
		</g>
		<path style="fill:#407BFF;" d="M342.488,227.721c-0.128,2.932,4.502,9.713-1.212,13.644c1.069,2.387,5.333,20.43,0.905,24.762
			c-6.55,6.408-22.425-0.328-36.585-2.196c-0.598-5.853,3.721-19.074-0.226-37.978c-0.915-4.383,2.168-8.592,6.623-9.041
			c1.19-0.12,2.451-0.22,3.742-0.282c5.019-0.242,9.131-0.402,13.543,0.001c1.462,0.133,2.974,0.319,4.417,0.521
			C338.905,217.882,342.718,222.466,342.488,227.721z"/>
		<path style="fill:#FFB573;" d="M315.319,201.38c1.079,4.358,2.133,11.466,0.416,15.25c0,0,6.432,0.284,14.652,6.849
			c3.871-5.685-0.609-6.8-0.609-6.8c-3.417-0.802-3.958-4.958-3.954-8.199L315.319,201.38z"/>
		<path style="opacity:0.2;" d="M325.828,208.478l-5.976-4.038c-0.097,0.746,0.129,1.784,0.535,2.652
			c1.192,2.506,3.674,4.306,5.782,5.182C325.901,211.033,325.828,209.695,325.828,208.478z"/>
		<path style="fill:#FFB573;" d="M312.481,193.387c1.7,7.087,2.271,10.122,6.471,13.17c6.316,4.585,14.477,0.967,14.886-6.48
			c0.369-6.703-2.473-17.166-9.854-18.799C316.711,179.67,310.781,186.301,312.481,193.387z"/>
		<path style="fill:#263238;" d="M325.179,195.992c0.103,0.583,0.496,1.001,0.877,0.934c0.381-0.067,0.607-0.595,0.503-1.178
			c-0.103-0.583-0.496-1.001-0.877-0.934C325.301,194.881,325.076,195.408,325.179,195.992z"/>
		<path style="fill:#263238;" d="M331.522,195.103c0.103,0.583,0.496,1.001,0.877,0.934c0.381-0.068,0.607-0.595,0.503-1.178
			c-0.103-0.583-0.496-1.001-0.877-0.934C331.644,193.992,331.419,194.52,331.522,195.103z"/>
		<path style="fill:#263238;" d="M331.863,193.987l1.329-0.652C333.192,193.335,332.667,194.556,331.863,193.987z"/>
		<path style="fill:#ED893E;" d="M329.78,195.578c0,0,1.435,2.336,2.738,3.354c-0.643,0.855-2.01,0.758-2.01,0.758L329.78,195.578z"
			/>
		<path style="fill:#263238;" d="M328.602,202.515c0.312,0,0.643-0.027,0.993-0.089c0.094-0.017,0.158-0.107,0.141-0.202
			c-0.017-0.094-0.104-0.157-0.202-0.141c-2.557,0.455-4.072-1.123-4.087-1.138c-0.066-0.071-0.176-0.074-0.246-0.008
			c-0.07,0.066-0.074,0.176-0.008,0.246C325.251,201.244,326.47,202.515,328.602,202.515z"/>
		<path style="fill:#263238;" d="M323.661,193.721c0.088-0.027,0.165-0.089,0.209-0.178c0.69-1.39,1.959-1.554,1.973-1.556
			c0.188-0.024,0.327-0.195,0.305-0.386c-0.023-0.191-0.195-0.327-0.386-0.305c-0.067,0.008-1.659,0.213-2.515,1.938
			c-0.085,0.172-0.015,0.381,0.157,0.466C323.487,193.741,323.578,193.746,323.661,193.721z"/>
		<path style="fill:#263238;" d="M333.576,191.495c0.086-0.014,0.166-0.059,0.222-0.133c0.116-0.153,0.086-0.372-0.066-0.488
			c-1.531-1.164-3.05-0.642-3.115-0.619c-0.181,0.065-0.275,0.264-0.21,0.444c0.064,0.181,0.263,0.275,0.444,0.211
			c0.059-0.021,1.242-0.409,2.46,0.517C333.39,191.488,333.486,191.509,333.576,191.495z"/>
		<path style="fill:#263238;" d="M325.519,194.875l1.329-0.652C326.849,194.223,326.324,195.445,325.519,194.875z"/>
		<path style="opacity:0.2;" d="M324.851,250.737l-1.209-4.219l-16.795,1.751c-0.277,4.247-0.767,7.833-1.064,10.711
			C308.679,259.742,315.281,259.886,324.851,250.737z"/>
		<path style="opacity:0.2;" d="M317.308,223.478c0,0,0.559,2.868,0,7.671c-0.559,4.803-3.578,12.35-2.068,15.369h-4.529
			l-1.372-12.488l2.145-8.371l1.964-3.842L317.308,223.478z"/>
		<g>
			<g>
				<path style="fill:#FFB573;" d="M326.596,241.212l2.698-3.621l4.959,5.506c0,0-3.301,2.972-6.76,3.27l-0.497-0.835
					C326.186,244.173,326.039,242.584,326.596,241.212z"/>
				<path style="fill:#FFB573;" d="M334.263,237.332l1.467,2.128c0.669,0.97,0.43,2.298-0.534,2.975l-0.943,0.662l-4.959-5.506
					l2.352-1.012C332.587,236.174,333.682,236.489,334.263,237.332z"/>
			</g>
			<path style="fill:#FFB573;" d="M322.195,251.617l8.063-5.992l-3.662-4.413c0,0-3.12,3.335-11.262,5.155l3.751,7.171
				L322.195,251.617z"/>
		</g>
		<path style="fill:#407BFF;" d="M324.903,241.878l-4.007,1.389c-1.653,0.562-3.288,1.106-4.882,1.551
			c-1.113,0.33-2.227,0.597-3.239,0.78c-0.013-0.515-0.014-1.048,0.014-1.609c0.102-1.759,0.393-3.676,0.784-5.623
			c0.421-1.948,0.908-3.94,1.497-5.927c0.281-0.996,0.602-1.986,0.91-2.977c0.31-0.958,0.663-2.036,0.944-2.837l0.071-0.203
			c1.142-3.276-0.463-6.912-3.71-8.251c-3.363-1.387-7.213,0.215-8.599,3.578c-0.54,1.309-0.93,2.369-1.329,3.561
			c-0.398,1.16-0.74,2.335-1.074,3.517c-0.646,2.368-1.196,4.789-1.564,7.298c-0.375,2.513-0.602,5.109-0.5,7.88
			c0.108,2.764,0.494,5.756,1.938,8.961l0.11,0.247c0.266,0.585,0.643,1.131,1.129,1.608c1.175,1.149,2.609,1.821,3.735,2.108
			c1.154,0.306,2.114,0.35,2.945,0.323c1.653-0.071,2.88-0.392,4.025-0.73c2.253-0.696,4.073-1.639,5.834-2.6
			c1.738-0.992,3.362-2.051,4.917-3.185c1.124-0.827,2.195-1.661,3.252-2.57C327.126,246.878,325.9,244.842,324.903,241.878z"/>
		<path style="fill:#263238;" d="M314.148,184.941c0,0,2.008,8.997-0.166,14.337c-2.173,5.34-4.643-10.852-4.643-10.852v-3.485
			H314.148z"/>
		<path style="fill:#263238;" d="M316.793,199.423c0,0,0.369,2.083,2.153,1.466c1.784-0.617-0.48-4.322-0.48-4.322
			s1.263-2.287-0.254-5.069c0,0,3.19-1.312,3.609-5.223c0,0-0.138,3.913,1.821,3.843c1.959-0.069,1.695-3.5,1.695-3.5
			s1.637,4.53,3.558,3.5c1.921-1.03,0-4.529,0-4.529s2.052,2.882,3.633,1.51s-2.747-3.842-2.747-3.842s3.687-0.069,2.738-1.853
			c-0.948-1.784-3.154,1.934-8.535-0.126c-5.381-2.06-8.194,3.557-8.194,3.557l-1.506,4.391l-0.835,8.41L316.793,199.423z"/>
		<path style="fill:#407BFF;" d="M315.319,197.636c0,0-2.421-12.32,10.849-15.98c0,0-6.339-5.489-16.189,0
			c0,0,3.918,8.265,3.468,15.98H315.319z"/>
		<path style="opacity:0.5;fill:#FFFFFF;" d="M315.319,197.636c0,0-2.421-12.32,10.849-15.98c0,0-6.339-5.489-16.189,0
			c0,0,3.918,8.265,3.468,15.98H315.319z"/>
		<path style="fill:#FFB573;" d="M311.962,199.988c0.654,1.391,1.796,2.263,2.871,2.561c1.618,0.448,2.417-1.327,1.959-3.126
			c-0.412-1.619-1.751-3.803-3.371-3.448C311.826,196.326,311.215,198.398,311.962,199.988z"/>
	</g>
</g>
<g id="Character_1_1_">
	<g>
		<g>
			<g>
				<path style="fill:#FF8B7B;" d="M131.413,222.585l-0.617-6.824l-6.456,3.618c0,0,0.574,5.759,4.123,5.539L131.413,222.585z"/>
				<path style="fill:#FF8B7B;" d="M127.107,212.895l-2.87,1.089c-1.025,0.389-1.522,1.55-1.096,2.559l1.198,2.837l6.456-3.618
					l-1.384-2.117C128.914,212.885,127.956,212.573,127.107,212.895z"/>
			</g>
			<polygon style="fill:#FF8B7B;" points="131.413,222.585 136.602,225.525 133.643,230.282 126.475,224.275 129.54,221.233 
				130.893,221.996 			"/>
		</g>
		<path style="fill:#263238;" d="M162.145,203.945c-2.661-0.938-5.578,0.459-6.516,3.119l-0.19,0.537l-0.824,2.338
			c-0.317,0.869-0.67,1.754-1.027,2.637c-0.695,1.781-1.444,3.573-2.193,5.373c-0.764,1.794-1.519,3.609-2.32,5.407l-1.177,2.716
			l-0.205,0.472c-0.038,0.087-0.074,0.166-0.109,0.229c-0.068,0.138-0.128,0.223-0.184,0.297c-0.105,0.146-0.229,0.299-0.622,0.423
			c-0.381,0.126-0.966,0.181-1.655,0.147c-1.391-0.055-3.074-0.512-4.758-1.092c-2.73-0.987-5.572-3.391-8.292-4.886
			c-0.557,1.082-1.593,3.75-3.366,5.521c2.583,2.351,5.334,4.421,8.55,6.189c1.968,1.069,4.097,2.004,6.686,2.534
			c1.295,0.254,2.742,0.363,4.342,0.147c1.586-0.204,3.368-0.87,4.818-1.996c0.723-0.557,1.357-1.211,1.872-1.89
			c0.264-0.339,0.496-0.686,0.708-1.033l0.497-0.86l1.516-2.67c0.969-1.805,1.956-3.608,2.857-5.468
			c0.917-1.852,1.785-3.736,2.602-5.675c0.393-0.979,0.78-1.96,1.149-2.978c0.186-0.507,0.367-1.02,0.544-1.555l0.25-0.822
			l0.273-1.001C166.064,207.551,164.682,204.839,162.145,203.945z"/>
		<path style="opacity:0.4;" d="M160.557,222.138c0.917-1.852,1.785-3.736,2.602-5.675c0.202-0.504,0.394-1.023,0.592-1.533
			l-3.122-4.174l-3.067,1.881c0,0,1.105,8.111,0.678,13.964C159.031,225.128,159.823,223.653,160.557,222.138z"/>
		<polygon style="fill:#FF8B7B;" points="172.233,405.734 165.688,405.631 165.33,390.428 171.876,390.53 		"/>
		<path style="fill:#263238;" d="M165.437,403.648l7.151,0.112c0.268,0.004,0.488,0.194,0.529,0.456l0.917,5.845
			c0.095,0.606-0.4,1.171-1.017,1.151c-2.577-0.084-6.295-0.294-9.537-0.345c-3.791-0.059-3.415,0.096-7.86,0.026
			c-2.688-0.042-3.259-2.774-2.117-3.002c5.195-1.041,5.722-1.096,10.325-3.758C164.327,403.845,164.872,403.639,165.437,403.648z"
			/>
		<polygon style="opacity:0.2;" points="165.332,390.432 165.515,398.268 172.063,398.371 171.88,390.535 		"/>
		<g>
			<path style="fill:#407BFF;" d="M164.279,404.232c0.054-0.018,0.092-0.065,0.099-0.123c0.007-0.065-0.028-0.13-0.088-0.161
				c-0.303-0.159-2.985-1.535-3.766-1.104c-0.151,0.083-0.235,0.225-0.242,0.409l0,0c-0.013,0.309,0.094,0.565,0.317,0.76
				c0.741,0.648,2.612,0.419,3.661,0.225C164.266,404.236,164.273,404.234,164.279,404.232z M160.74,403.093
				c0.489-0.163,1.937,0.404,2.993,0.915c-1.44,0.218-2.521,0.138-2.937-0.225c-0.146-0.128-0.213-0.292-0.204-0.502
				c0.003-0.081,0.031-0.13,0.092-0.164C160.701,403.108,160.719,403.1,160.74,403.093z"/>
			<path style="fill:#407BFF;" d="M164.279,404.232c0.014-0.005,0.027-0.011,0.039-0.02c0.044-0.031,0.066-0.085,0.059-0.14
				c-0.01-0.075-0.246-1.843-1.104-2.54c-0.262-0.213-0.554-0.307-0.87-0.28l0,0c-0.426,0.037-0.542,0.251-0.564,0.425
				c-0.095,0.739,1.521,2.181,2.325,2.548C164.202,404.242,164.243,404.244,164.279,404.232z M162.288,401.591
				c0.04-0.013,0.091-0.024,0.158-0.03l0,0c0.234-0.02,0.443,0.048,0.64,0.207c0.564,0.458,0.833,1.518,0.934,2.034
				c-0.824-0.498-1.928-1.628-1.871-2.072C162.151,401.704,162.161,401.634,162.288,401.591z M162.424,401.407l-0.004,0.001
				L162.424,401.407z"/>
		</g>
		<path style="fill:#407BFF;" d="M176.195,324.817c7.994-33.454,13.573-48.97,10.562-65.564l-21.103,1.276
			c0,0-9.111,45.506-7.172,65.129c2.013,20.403,4.964,67.892,4.964,67.892l10.548,0.15
			C173.994,393.7,180.134,347.607,176.195,324.817z"/>
		<polygon style="fill:#263238;" points="161.836,391.206 162.713,395.728 174.319,395.935 174.784,391.663 		"/>
		<path style="opacity:0.2;" d="M176.334,324.242c6.125-25.565,10.799-40.595,11.218-53.723
			C182.193,275.079,168.604,290.447,176.334,324.242z"/>
		<polygon style="fill:#FF8B7B;" points="206.34,405.734 199.782,405.631 197.618,390.428 204.176,390.53 		"/>
		<path style="fill:#263238;" d="M199.312,403.648l7.145,0.112c0.268,0.004,0.478,0.194,0.506,0.456l0.622,5.845
			c0.065,0.606-0.459,1.171-1.075,1.151c-2.572-0.084-3.382-0.294-6.621-0.345c-3.788-0.059-2.04,0.096-6.482,0.026
			c-2.686-0.042-3.116-2.762-1.966-3.002c3.64-0.762,4.595-2.211,6.237-3.758C198.107,403.729,198.747,403.639,199.312,403.648z"/>
		<polygon style="opacity:0.2;" points="197.62,390.432 198.734,398.268 205.295,398.371 204.181,390.535 		"/>
		<g>
			<path style="fill:#407BFF;" d="M200.607,404.144c0.058,0.002,0.112-0.028,0.141-0.08c0.032-0.058,0.024-0.129-0.02-0.179
				c-0.223-0.25-2.204-2.44-3.106-2.311c-0.174,0.025-0.308,0.126-0.387,0.294h0c-0.133,0.28-0.133,0.553,0.001,0.809
				c0.443,0.851,2.289,1.283,3.351,1.465C200.593,404.143,200.6,404.144,200.607,404.144z M197.727,401.879
				c0.523,0.017,1.661,1.037,2.454,1.872c-1.438-0.294-2.422-0.738-2.671-1.216c-0.087-0.168-0.086-0.342,0.004-0.533
				c0.035-0.074,0.08-0.109,0.151-0.12C197.685,401.879,197.706,401.878,197.727,401.879z"/>
			<path style="fill:#407BFF;" d="M200.607,404.144c0.015,0.001,0.03-0.001,0.044-0.005c0.054-0.014,0.096-0.055,0.11-0.109
				c0.02-0.072,0.489-1.783-0.044-2.721c-0.163-0.286-0.401-0.473-0.708-0.557l0,0c-0.414-0.112-0.607,0.045-0.695,0.198
				c-0.378,0.649,0.577,2.533,1.188,3.148C200.53,404.127,200.568,404.143,200.607,404.144z M199.768,401.026
				c0.043,0.001,0.095,0.009,0.16,0.027h0c0.228,0.062,0.398,0.196,0.52,0.411c0.35,0.616,0.189,1.685,0.083,2.196
				c-0.58-0.742-1.175-2.163-0.948-2.552C199.596,401.083,199.632,401.021,199.768,401.026z M199.968,400.903l-0.004,0
				L199.968,400.903z"/>
		</g>
		<path style="fill:#407BFF;" d="M197.62,324.817c3.59-33.454,6.812-52.341,1.618-68.935l-22.088,4.647
			c0,0-1.654,45.506,2.868,65.129c4.699,20.403,15.679,67.892,15.679,67.892l10.568,0.15
			C206.264,393.7,204.559,347.607,197.62,324.817z"/>
		<polygon style="fill:#263238;" points="194.155,391.206 194.846,395.728 206.694,395.935 207.364,391.663 		"/>
		<g>
			<path style="fill:#263238;" d="M151.926,175.629c0,0-5.188-0.063-5.188,1.75s2.854,2.74,2.854,2.74s-1.792,4.157,3.521,4.552
				C158.426,185.067,151.926,175.629,151.926,175.629z"/>
			<g style="opacity:0.18;">
				<path style="fill:#263238;" d="M152.073,175.526c0,0-4.173,3.084-1.693,4.57c0,0,0.478,6.11,2.397,4.273
					C154.696,182.531,152.073,175.526,152.073,175.526z"/>
				<path style="opacity:0.4;" d="M152.073,175.526c0,0-4.173,3.084-1.693,4.57c0,0,0.478,6.11,2.397,4.273
					C154.696,182.531,152.073,175.526,152.073,175.526z"/>
			</g>
			<path style="fill:#FF8B7B;" d="M163.602,205.273c3.936-2.381,4.121-5.492,2.872-8.293c-0.307-0.703-0.658-1.385-1.05-2.044
				l3.884-6.147l2.856-4.488c0.468,5.06,3.899,13.583,8.131,15.701c-2.924,3.026-8.007,5.894-11.235,8.592
				C164.401,207.755,163.602,205.273,163.602,205.273z"/>
			<path style="opacity:0.2;enable-background:new    ;" d="M165.424,194.936c0.393,0.659,0.743,1.342,1.05,2.044
				c1.869-1.038,4.288-3.78,3.84-6.116c-0.25-0.73-0.588-1.427-1.007-2.076L165.424,194.936z"/>
			<path style="fill:#FF8B7B;" d="M168.697,174.88c2.861,6.119,4.853,9.537,3.525,14.283c-1.941,7.11-10.575,8.532-15.154,3.421
				c-4.15-4.58-8.074-13.836-3.666-19.465c2.956-3.94,8.545-4.737,12.485-1.782C167.111,172.257,168.08,173.477,168.697,174.88z"/>
			<path style="fill:#263238;" d="M160.449,183.093c0.264,0.486,0.22,1.018-0.088,1.197c-0.308,0.18-0.77-0.064-1.069-0.548
				s-0.22-1.018,0.088-1.197C159.688,182.366,160.188,182.615,160.449,183.093z"/>
			<path style="fill:#263238;" d="M155.033,185.958c0.261,0.478,0.22,1.018-0.09,1.189c-0.311,0.171-0.77-0.065-1.069-0.548
				c-0.298-0.484-0.22-1.018,0.088-1.197C154.27,185.222,154.77,185.472,155.033,185.958z"/>
			<path style="fill:#FF5652;" d="M156.579,185.133c0.214,1.766,0.227,3.55,0.039,5.319c0.928,0.103,1.856-0.195,2.55-0.82
				L156.579,185.133z"/>
			<path style="fill:#263238;" d="M162.053,191.309c1.039-0.735,1.736-1.858,1.932-3.115c0.016-0.087-0.037-0.171-0.122-0.194
				c-0.082-0.021-0.165,0.029-0.185,0.111c-0.001,0.002-0.001,0.004-0.002,0.006c-0.222,1.374-1.068,2.566-2.291,3.231
				c-0.076,0.037-0.108,0.128-0.071,0.204c0.003,0.005,0.006,0.011,0.009,0.016c0.046,0.074,0.142,0.101,0.22,0.062
				C161.719,191.533,161.889,191.426,162.053,191.309z"/>
			<path style="fill:#263238;" d="M160.139,178.538c0.033-0.04,0.056-0.088,0.065-0.139c0.028-0.171-0.087-0.333-0.258-0.362
				c-0.005-0.001-0.01-0.001-0.015-0.002c-1.002-0.172-2.024,0.158-2.737,0.883c-0.112,0.132-0.095,0.331,0.037,0.443
				c0.003,0.003,0.006,0.005,0.009,0.007c0.135,0.113,0.334,0.098,0.45-0.034c0.563-0.58,1.378-0.841,2.174-0.698
				C159.966,178.654,160.07,178.616,160.139,178.538z"/>
			<path style="fill:#263238;" d="M153.586,181.49c0.005-0.051-0.003-0.104-0.025-0.151c-0.073-0.158-0.259-0.226-0.417-0.154
				c-0.005,0.002-0.009,0.005-0.014,0.007c-0.925,0.421-1.585,1.269-1.766,2.27c-0.018,0.173,0.107,0.327,0.28,0.345
				c0.004,0,0.008,0.001,0.011,0.001c0.175,0.018,0.331-0.107,0.353-0.281c0.139-0.796,0.666-1.471,1.405-1.8
				C153.508,181.684,153.574,181.594,153.586,181.49z"/>
			<path style="opacity:0.22;fill:#263238;" d="M171.438,179.923c0,0-4.997-0.692-6.08-4.03c-1.083-3.338-2.976-5.333-5.494-2.947
				c-2.518,2.385-5.779,6.54-8.678,4.915c-4.6-2.579-0.198-5.044-0.198-5.044s-1.098-2.17,3.513-3c0,0,0.589-2.473,4.921-1.613
				c0,0,2.975-2.003,5.432,0.735c0,0,2.89-1.039,3.729,2.991c0,0,2.654,0.244,2.252,3.191
				C170.833,175.12,172.084,176.282,171.438,179.923z"/>
			<path style="fill:#263238;" d="M172.642,186.273c0,0-4.653-4.485-6.591-8.283c-1.938-3.798-2.963-8.2-7.388-4.281
				c-4.425,3.92-7.3,7.545-11.3,0.357s4.173-3.093,4.173-3.093s-1.73-4.543,3.827-2.478c0,0,10.875-5.43,14.438,1.32
				S172.642,186.273,172.642,186.273z"/>
			<path style="fill:#FF8B7B;" d="M173.741,179.517c0.148,1.662-0.289,3.324-1.236,4.698c-1.235,1.709-2.919,0.662-3.482-1.396
				c-0.507-1.853-0.477-4.976,1.19-5.923C171.879,175.95,173.55,177.428,173.741,179.517z"/>
		</g>
		<path style="fill:#263238;" d="M164.818,262.356c0,0,12.12,3.479,36.286-2.021c0,0-1.566-39.471-9.915-59.972
			c-0.795-1.952-2.678-3.226-4.785-3.239c-5.509-0.034-16.924,0.852-28.485,7.579c-2.234,1.3-3.152,4.073-2.157,6.457
			C159.283,219.593,166.696,240.401,164.818,262.356z"/>
		<path style="opacity:0.4;" d="M183.676,204.192l1.441,4.086c0,0,7.285,5.955,11.52,12.041c-0.806-4.26-1.751-8.442-2.855-12.308
			l-5.044-4.605L183.676,204.192z"/>
		<g>
			<path style="fill:#FF8B7B;" d="M204.139,251.255l-6.22,2.873l5.576,4.866c0,0,5.232-2.474,3.833-5.743L204.139,251.255z"/>
			<path style="fill:#FF8B7B;" d="M196.457,258.564l1.989,2.338c0.71,0.835,1.971,0.913,2.779,0.172l2.27-2.08l-5.576-4.866
				l-1.529,2.015C195.841,256.865,195.869,257.873,196.457,258.564z"/>
		</g>
		<polygon style="fill:#FF8B7B;" points="204.139,251.255 205.165,245.379 210.64,246.57 207.389,255.339 203.495,253.473 
			203.759,251.942 		"/>
		<path style="fill:#263238;" d="M213.501,225.688c-0.257-1.482-0.651-3.012-1.323-4.57l-0.565-1.17
			c-0.189-0.371-0.34-0.612-0.513-0.925l-1.011-1.776c-0.725-1.147-1.447-2.31-2.265-3.393c-1.58-2.217-3.377-4.255-5.275-6.184
			c-1.898-1.933-3.97-3.673-6.14-5.288c-1.09-0.801-2.221-1.553-3.375-2.283c-0.591-0.355-1.165-0.719-1.784-1.056
			c-0.303-0.168-0.615-0.335-0.94-0.5l-0.495-0.251l-0.588-0.283c-2.601-1.244-5.768-0.268-7.184,2.287
			c-1.47,2.653-0.511,5.995,2.141,7.465l0.379,0.21l0.554,0.307c0.218,0.121,0.442,0.252,0.67,0.39
			c0.454,0.258,0.918,0.548,1.378,0.827c0.917,0.586,1.83,1.193,2.714,1.849c1.783,1.288,3.512,2.67,5.133,4.16
			c1.596,1.51,3.172,3.055,4.559,4.751c0.37,0.408,0.693,0.847,1.025,1.282c0.332,0.434,0.688,0.855,1.006,1.299l0.932,1.349
			c0.144,0.212,0.34,0.478,0.443,0.647l0.284,0.463c0.715,1.358,1.296,3.284,1.549,5.383c0.298,2.095,0.382,4.354,0.348,6.646
			c-0.078,3.98-0.459,8.154-1.014,12.222c1.335-0.029,3.564,0.186,5.645,1.586c1.597-4.235,2.807-8.511,3.534-13.07
			c0.407-2.592,0.66-5.256,0.594-8.057C213.881,228.606,213.764,227.173,213.501,225.688z"/>
		<path style="fill:#263238;" d="M165.739,202.099l-1.08-1.892c-0.469-0.823-0.007-1.864,0.92-2.056
			c1.92-0.399,5.37-1.369,10.786-3.726c0.722-0.314,1.565,0.032,1.856,0.763l1.769,4.454
			C179.99,199.642,171.801,203.693,165.739,202.099z"/>
		<path style="opacity:0.4;" d="M166.424,201.317l8.919-1.875C175.343,199.442,169.131,204.067,166.424,201.317z"/>
	</g>
</g>
</svg>
