<?xml version="1.0" standalone="no"?>
<!DOCTYPE svg PUBLIC "-//W3C//DTD SVG 20010904//EN"
 "http://www.w3.org/TR/2001/REC-SVG-20010904/DTD/svg10.dtd">
<svg version="1.0" xmlns="http://www.w3.org/2000/svg"
 width="1280.000000pt" height="802.000000pt" viewBox="0 0 1280.000000 802.000000"
 preserveAspectRatio="xMidYMid meet">
<metadata>
Created by potrace 1.15, written by Peter Selinger 2001-2017
</metadata>
<g transform="translate(0.000000,802.000000) scale(0.100000,-0.100000)"
fill="#3f51b5" stroke="none">
<path d="M423 8005 c-189 -41 -357 -206 -408 -401 -13 -51 -15 -475 -15 -3595
l0 -3537 21 -68 c29 -95 77 -171 154 -243 71 -66 131 -101 239 -137 l70 -24
5926 0 5926 0 83 34 c45 19 104 49 131 66 66 43 148 133 187 206 68 128 63
-178 61 3736 l-3 3543 -21 55 c-37 98 -63 138 -131 210 -48 51 -85 80 -137
105 -143 70 409 65 -6116 64 -4923 0 -5915 -3 -5967 -14z m7787 -1010 c0 -118
3 -215 8 -215 4 0 42 48 86 105 l79 105 104 0 104 0 -20 -29 c-12 -16 -55 -71
-96 -121 -41 -51 -75 -96 -75 -101 0 -5 46 -78 103 -162 56 -83 104 -155 105
-159 2 -5 -44 -8 -102 -8 l-107 0 -47 76 c-26 42 -65 99 -87 128 l-40 51 -6
-30 c-4 -16 -7 -74 -8 -128 l-1 -98 -87 3 -88 3 -3 398 -2 397 90 0 90 0 0
-215z m-1729 175 c76 -15 121 -41 146 -86 38 -66 27 -141 -32 -218 l-26 -34
42 -29 c70 -47 84 -73 84 -158 0 -65 -3 -78 -30 -116 -71 -101 -149 -122 -425
-117 l-155 3 -3 190 c-2 105 0 277 3 383 l7 192 168 0 c92 0 191 -5 221 -10z
m2798 -178 c153 -279 141 -277 141 -24 l0 212 85 0 84 0 3 -197 c2 -109 2
-283 0 -386 l-2 -188 -92 3 -91 3 -104 190 c-57 105 -123 222 -146 260 l-42
70 -3 -262 -2 -263 -85 0 -85 0 0 385 0 385 118 0 117 0 104 -188z m-2139 -3
c52 -18 100 -57 116 -95 11 -25 14 -89 14 -259 l0 -225 -80 0 c-72 0 -80 2
-91 23 -6 12 -13 23 -14 25 -2 2 -20 -8 -42 -22 -113 -74 -237 -51 -290 54
-53 103 -13 214 93 260 43 19 158 40 218 40 45 0 46 16 6 55 -24 23 -41 30
-89 33 -52 4 -78 -1 -192 -34 -15 -4 -16 4 -12 63 3 37 7 70 10 73 2 2 34 10
71 17 77 14 230 10 282 -8z m691 -2 c31 -17 50 -37 67 -70 22 -42 25 -62 30
-220 2 -95 2 -199 -2 -230 l-7 -57 -83 0 -83 0 -7 188 c-4 104 -10 202 -15
218 -7 27 -11 29 -62 32 -31 2 -67 -2 -82 -7 l-27 -11 0 -210 0 -210 -90 0
-90 0 0 290 0 290 90 0 c89 0 90 0 90 -25 0 -30 3 -31 48 -3 85 52 156 60 223
25z m2194 12 c84 -13 127 -36 162 -88 22 -33 23 -41 23 -267 l0 -234 -85 0
c-84 0 -85 0 -85 25 0 14 -2 25 -4 25 -2 0 -38 -16 -80 -36 -84 -40 -121 -42
-190 -9 -72 34 -113 148 -82 229 31 81 98 119 246 136 127 15 124 14 104 45
-36 55 -123 70 -234 40 -82 -22 -80 -23 -80 50 l0 64 38 7 c43 8 137 21 169
23 12 0 56 -4 98 -10z m709 -3 c18 -7 49 -28 69 -45 l36 -32 51 35 c89 61 158
69 228 26 62 -38 72 -80 79 -333 l6 -224 -87 -8 c-48 -4 -90 -4 -94 -1 -3 4
-7 93 -7 199 -1 204 -6 232 -48 242 -12 3 -42 0 -67 -8 l-45 -13 -3 -206 c-3
-237 7 -218 -113 -218 l-67 0 -3 206 c-4 204 -4 206 -29 226 -25 20 -59 19
-116 -2 l-24 -10 0 -210 0 -210 -84 0 c-78 0 -84 1 -90 23 -3 12 -6 142 -6
290 l0 267 90 0 c89 0 90 0 90 -25 0 -30 3 -31 48 -3 75 46 131 57 186 34z
m974 -18 c81 -38 116 -102 128 -236 l7 -72 -202 0 c-148 0 -201 -3 -201 -12 0
-6 9 -31 20 -54 27 -55 74 -78 155 -78 55 0 85 9 203 61 9 4 12 -14 12 -71 l0
-75 -52 -17 c-29 -9 -96 -18 -149 -21 -172 -10 -280 40 -336 155 -24 49 -28
69 -28 142 1 64 6 96 21 131 28 60 78 115 128 141 81 41 214 44 294 6z m-8580
-1134 c59 -29 96 -69 126 -134 18 -39 21 -69 24 -231 l4 -186 -171 -6 c-94 -4
-232 -4 -308 0 l-138 6 -30 -62 c-16 -34 -35 -67 -42 -73 -7 -6 -13 -32 -13
-59 0 -38 6 -58 29 -89 79 -109 60 -298 -40 -398 -123 -124 -377 -127 -505 -6
-36 33 -77 148 -89 246 -7 54 -6 58 35 115 38 54 41 63 38 114 l-3 54 -11 -47
c-6 -26 -29 -74 -50 -107 l-39 -60 -290 -3 c-159 -2 -294 0 -298 3 -4 3 -7
176 -5 385 l3 379 27 46 c32 54 77 95 133 120 38 17 86 19 801 19 l760 0 52
-26z m85 -584 l67 0 -2 -167 -3 -168 -287 -3 -286 -2 -35 47 c-72 99 -74 124
-25 235 l32 71 236 -6 c129 -4 265 -7 303 -7z m-1271 -453 c8 -88 54 -197 107
-254 16 -18 29 -33 27 -33 -1 0 -47 7 -102 15 -68 10 -180 15 -361 15 l-263 0
0 170 0 170 293 -2 292 -3 7 -78z m1211 63 l127 0 0 -154 0 -154 -267 -5
c-178 -4 -290 -10 -333 -20 -36 -8 -80 -17 -98 -21 l-34 -6 50 58 c74 86 80
101 107 276 l6 39 157 -6 c86 -4 214 -7 285 -7z m-1078 -388 c72 -6 145 -10
163 -11 l32 -1 0 -89 0 -89 -87 -6 c-137 -10 -602 0 -651 13 -54 15 -115 69
-153 136 -16 27 -29 54 -29 58 0 10 557 2 725 -11z m1194 -9 c-19 -57 -83
-127 -142 -157 l-58 -30 -339 0 c-186 -1 -341 2 -344 5 -3 3 -9 44 -12 92 l-7
87 124 0 c68 1 162 7 209 14 53 9 177 14 332 15 l247 1 -10 -27z m1947 -843
l164 0 0 -111 c0 -137 -11 -163 -97 -232 l-63 -51 -1 -90 c-1 -50 -4 -102 -8
-114 l-6 -24 -20 22 c-17 19 -21 39 -23 135 l-4 112 82 74 82 74 -6 64 c-3 35
-7 66 -9 68 -3 2 -49 5 -103 6 -88 2 -103 -1 -138 -21 -44 -26 -49 -23 -66 38
-16 57 -14 63 21 56 17 -3 105 -6 195 -6z m1747 4 l37 -7 0 -266 c0 -146 -3
-283 -6 -303 -7 -38 -7 -38 -56 -38 l-50 0 7 48 c4 26 14 63 22 82 11 27 13
56 8 123 l-7 87 -148 0 c-126 0 -149 2 -154 16 -3 9 -6 69 -6 134 l0 119 38 4
c64 6 275 7 315 1z m2961 -14 c19 0 19 -6 13 -176 l-7 -177 70 5 c38 3 80 12
92 20 22 15 23 19 19 147 -3 124 -2 131 15 125 11 -4 25 -11 32 -17 15 -12 16
-84 1 -162 -9 -50 -8 -62 8 -92 17 -32 17 -35 0 -64 -13 -23 -17 -54 -17 -127
-1 -88 -2 -95 -15 -78 -10 13 -15 43 -15 87 0 99 -11 116 -76 125 -30 3 -78 3
-108 0 l-54 -7 -7 164 c-8 173 -1 257 18 238 6 -6 20 -11 31 -11z m-6993 0
c18 -10 19 -23 19 -170 l0 -160 89 0 88 0 6 118 c5 125 17 181 31 146 4 -10
10 -72 13 -137 6 -110 8 -119 30 -137 l25 -19 -21 -27 c-18 -23 -21 -40 -21
-125 0 -55 -4 -99 -8 -99 -5 0 -17 6 -28 14 -16 12 -20 30 -24 108 l-5 93
-119 3 -119 3 7 61 c3 33 6 123 6 199 0 77 3 139 6 139 3 0 14 -5 25 -10z
m4435 0 l74 0 1 -107 c1 -135 6 -155 43 -164 16 -5 33 -14 37 -21 10 -15 12
-196 3 -251 -4 -24 -15 -42 -28 -49 -22 -12 -268 -15 -305 -3 -33 10 -42 53
-39 185 l3 125 37 20 38 20 0 129 0 129 31 -7 c17 -3 65 -6 105 -6z m684 -7
c3 -3 6 -55 8 -117 4 -109 3 -113 -23 -144 -14 -17 -48 -47 -75 -67 l-49 -36
-3 -112 -3 -112 -27 -3 c-32 -4 -32 -8 -28 158 l2 105 74 70 74 70 0 73 0 72
-88 0 c-78 0 -153 -13 -203 -34 -14 -6 -18 1 -20 42 l-4 49 180 -5 c99 -2 182
-7 185 -9z m268 2 c5 -4 1 -13 -23 -55 -11 -18 -15 -59 -15 -146 l0 -121 138
-6 c75 -3 151 -10 167 -15 17 -6 26 -11 20 -11 -6 -1 -10 -47 -10 -118 l0
-118 -177 -3 c-161 -2 -178 -1 -186 15 -6 10 -10 148 -11 307 l-1 289 47 -7
c25 -3 48 -8 51 -11z m1342 -1 c5 -5 10 -18 12 -29 3 -19 -3 -20 -115 -23
l-118 -3 3 -97 3 -97 40 -2 c22 -2 73 -6 114 -9 l73 -6 -4 -158 c-2 -88 -6
-162 -9 -165 -12 -11 -235 -8 -276 5 -41 13 -113 74 -100 86 3 3 34 -1 69 -11
35 -9 97 -19 138 -21 106 -8 115 0 114 105 0 45 -4 84 -8 89 -4 4 -54 9 -111
10 l-103 4 -7 138 c-4 76 -4 152 0 170 l7 33 135 -5 c74 -3 138 -9 143 -14z
m1019 10 l62 -7 1 -181 c0 -100 1 -217 1 -261 1 -44 -2 -97 -6 -117 l-8 -38
-173 0 c-172 0 -174 0 -180 23 -13 50 -14 50 107 43 61 -3 130 -2 152 2 l40 7
3 70 c2 52 -2 79 -15 104 l-18 34 -92 -2 c-51 -1 -93 1 -93 6 0 4 -3 17 -6 29
-5 20 -3 21 100 16 58 -3 106 -2 106 1 0 3 7 41 15 84 8 43 15 91 15 107 l0
29 -86 -7 c-48 -3 -115 -3 -151 0 -57 6 -66 10 -79 35 l-15 29 129 0 c71 0
157 -3 191 -6z m588 -8 c10 -9 10 -294 1 -318 -7 -16 -24 -18 -158 -18 l-150
0 1 -77 c2 -127 -9 -119 157 -119 l144 1 13 -33 14 -32 -189 0 -190 0 0 172 0
171 107 -6 c110 -6 183 4 203 28 8 9 9 42 4 101 l-7 87 -78 -7 c-42 -3 -109
-3 -147 0 -61 6 -71 10 -81 31 -6 13 -11 27 -11 30 0 8 358 -2 367 -11z
m-9807 -266 l0 -270 44 0 c54 0 56 4 56 121 0 49 2 89 5 89 2 0 16 -5 30 -12
l26 -11 -3 -121 -3 -121 -172 -3 -171 -2 -22 30 -21 30 80 0 c44 0 82 4 85 9
3 5 9 112 12 239 l7 229 -67 8 c-49 5 -74 13 -94 31 l-27 23 118 1 117 0 0
-270z m678 253 c12 -30 8 -266 -5 -288 -11 -19 -22 -20 -155 -20 l-143 0 4
-100 c2 -55 5 -102 8 -105 2 -3 72 -6 154 -8 l149 -3 0 -30 0 -29 -185 0 -185
0 2 163 3 162 135 2 c196 4 180 -6 180 118 l0 105 -147 0 c-122 0 -149 3 -165
17 -10 9 -18 20 -18 25 0 4 81 8 180 8 163 0 181 -2 188 -17z m528 11 c21 -5
21 -10 20 -287 -1 -155 -5 -288 -9 -294 -6 -10 -51 -13 -168 -13 l-160 0 -25
28 -26 27 164 5 163 5 3 101 3 102 -98 4 c-73 3 -105 8 -125 22 -16 10 -28 22
-28 27 0 5 49 9 110 9 106 0 110 1 126 25 10 16 18 56 22 110 l5 86 -129 -2
c-105 -2 -137 2 -173 16 -37 16 -41 20 -25 26 22 9 319 11 350 3z m1629 -22
c0 -24 -1 -24 -120 -25 l-120 -2 3 -75 c1 -41 4 -90 7 -107 l6 -33 109 0 108
0 8 -42 c8 -50 8 -229 -1 -256 -3 -12 -18 -22 -37 -26 -47 -9 -199 -7 -238 4
-35 9 -109 74 -98 85 3 3 34 -2 69 -11 64 -17 225 -25 244 -12 6 3 9 45 7 102
l-3 95 -112 3 -112 3 -3 90 c-2 50 0 123 3 163 l7 73 136 -3 c136 -3 137 -3
137 -26z m265 17 c0 -6 -9 -22 -20 -36 -18 -23 -20 -41 -20 -154 l0 -129 114
0 c62 0 134 -3 160 -6 l47 -7 -3 -126 -3 -126 -140 -3 c-77 -2 -158 0 -181 3
l-41 6 -6 82 c-4 45 -4 178 0 295 l6 212 44 0 c24 0 43 -5 43 -11z m1270 -124
l0 -135 28 0 c53 0 55 -6 50 -151 -3 -74 -8 -142 -13 -151 -6 -16 -24 -18
-159 -18 -191 0 -191 0 -200 109 -4 43 -4 106 0 139 6 54 9 61 39 75 39 19 45
42 45 173 l0 94 105 0 105 0 0 -135z m-4225 -739 c83 -35 74 -117 -25 -228
-27 -31 -46 -58 -43 -62 3 -3 32 -6 63 -6 34 0 64 -6 76 -15 17 -13 8 -14 -93
-15 -107 0 -113 1 -113 20 0 11 27 50 61 86 119 128 114 208 -12 184 -66 -13
-64 -13 -48 7 15 17 65 42 87 43 7 0 28 -6 47 -14z m272 -5 c42 -26 49 -53 25
-99 l-19 -37 24 -46 c23 -44 24 -48 9 -82 -26 -64 -125 -89 -180 -46 -14 11
-26 24 -26 28 0 4 27 3 61 -3 81 -14 94 -5 94 65 l0 54 -37 3 c-21 2 -38 6
-38 10 1 4 19 19 40 34 29 20 40 35 40 53 0 34 -33 46 -101 38 -59 -7 -61 8
-5 33 43 19 76 17 113 -5z m295 -174 c14 -11 18 -21 11 -25 -18 -12 -33 -50
-33 -86 0 -29 -4 -36 -20 -36 -18 0 -20 7 -20 55 l0 55 -73 0 c-41 0 -76 3
-80 6 -12 12 54 102 120 165 l68 64 3 -90 c2 -78 5 -92 24 -108z m-789 -121
l32 -19 -35 -8 c-34 -8 -130 -2 -130 8 0 3 11 13 24 24 28 22 38 71 29 152 -5
49 -10 61 -30 70 -33 15 -29 24 25 51 l47 24 3 -142 3 -141 32 -19z m4612 112
c51 -45 42 -144 -16 -173 -31 -17 -50 -12 -96 21 l-32 24 -19 -25 c-17 -21
-21 -22 -26 -9 -3 9 -6 29 -6 45 0 34 -13 37 -34 7 l-15 -21 -20 24 -19 24 -8
-54 c-7 -51 -8 -52 -20 -30 -14 25 -18 108 -8 147 8 27 40 29 47 2 8 -33 35
-35 58 -6 24 30 36 32 60 10 17 -15 20 -15 49 10 39 32 71 33 105 4z m109 -28
c21 -27 42 -50 47 -50 5 0 9 18 9 40 0 22 5 40 10 40 6 0 10 -37 10 -90 0 -49
-2 -90 -5 -90 -3 0 -23 28 -44 62 l-39 61 -8 -39 -8 -39 -7 45 c-8 47 -11 110
-6 110 2 0 20 -22 41 -50z m284 22 c6 -9 12 -24 12 -34 0 -14 8 -18 40 -18 38
0 40 2 40 30 0 17 4 30 9 30 9 0 21 -80 21 -142 0 -29 3 -36 15 -32 13 5 25
38 55 152 13 52 28 53 78 7 l39 -34 31 34 c19 22 39 35 55 35 49 0 116 -13
111 -21 -3 -5 -11 -9 -19 -9 -8 0 -26 -5 -40 -10 -35 -13 -20 -35 33 -45 l37
-8 -40 -9 c-65 -14 -67 -15 -55 -37 5 -11 31 -26 58 -34 l47 -15 -62 -1 -63
-1 0 58 c0 33 -6 66 -13 77 -13 17 -15 17 -35 -3 -11 -11 -26 -46 -32 -79
l-13 -58 -22 68 c-25 78 -50 111 -65 87 -6 -8 -22 -53 -36 -100 -15 -47 -28
-88 -31 -92 -2 -5 -17 7 -34 24 -20 22 -29 43 -29 65 0 32 -2 33 -39 33 -41 0
-50 -12 -52 -70 -2 -58 -18 17 -18 88 -1 70 -2 72 -25 72 -38 0 -56 -35 -56
-107 0 -47 -4 -63 -14 -63 -10 0 -13 16 -13 66 1 60 -2 69 -26 90 l-27 23 38
3 c60 6 126 -3 140 -20z m621 -3 c16 -46 15 -49 -23 -49 l-35 0 17 40 c9 22
20 40 24 40 3 0 11 -14 17 -31z m148 21 l36 0 -6 -62 c-4 -46 -2 -68 9 -82 27
-37 14 -38 -30 -2 -24 20 -47 36 -50 36 -3 0 -6 -16 -6 -35 0 -24 -5 -35 -15
-35 -17 0 -20 46 -8 138 4 40 9 52 20 48 8 -4 31 -6 50 -6z m-164 -105 c12 8
27 15 33 15 12 0 50 -77 43 -85 -3 -2 -22 7 -42 22 l-37 26 -30 -21 c-16 -12
-32 -22 -35 -22 -11 0 -4 27 17 60 21 32 23 33 26 12 3 -21 5 -21 25 -7z
m-1343 -415 l0 -220 23 0 c42 0 59 31 58 104 0 64 1 66 24 66 25 0 25 -1 25
-94 l0 -94 -34 -6 c-19 -4 -74 -7 -123 -7 -70 -1 -97 3 -124 17 l-34 19 66 3
c59 3 68 5 73 25 3 12 6 100 6 195 l0 172 -59 0 c-50 0 -59 3 -64 20 -5 19 0
20 79 20 l84 0 0 -220z m944 163 c-55 -125 -160 -301 -231 -386 -19 -23 -23
-25 -23 -10 1 29 35 97 127 253 82 138 127 200 145 200 4 0 -4 -26 -18 -57z
m890 48 c10 -1 1 -421 -9 -457 -6 -19 -10 -21 -40 -11 -30 9 -33 13 -29 41 16
126 23 211 16 218 -4 4 -59 9 -122 10 l-115 3 -3 89 c-2 49 -1 94 1 100 3 7
53 10 148 10 79 -1 148 -2 153 -3z m-3205 -108 c2 -27 18 -11 41 37 41 88 51
76 17 -21 -17 -52 -36 -94 -42 -94 -13 0 -52 98 -59 150 l-6 40 24 -50 c14
-27 25 -56 25 -62z m176 71 c-10 -7 -23 -15 -29 -17 -7 -2 -7 -12 3 -33 l13
-29 19 24 c22 27 22 27 36 -14 6 -16 14 -38 18 -48 7 -16 3 -16 -39 4 l-46 23
-30 -29 c-36 -35 -37 -29 -6 63 32 94 33 94 58 81 21 -11 21 -12 3 -25z m104
-61 l1 -63 50 -1 c28 -1 56 -2 63 -3 13 -1 13 0 2 98 -6 62 -5 66 14 66 20 0
21 -5 21 -96 l0 -97 -46 7 c-26 3 -66 6 -90 6 l-44 0 0 59 c0 32 3 73 7 92 5
28 7 30 14 14 4 -11 8 -48 8 -82z m315 74 c47 -31 42 -109 -8 -142 -14 -9 -43
-19 -66 -22 l-40 -6 0 98 0 98 45 -5 c25 -3 56 -13 69 -21z m1326 -64 c0 -49
-3 -105 -6 -125 l-7 -38 -118 0 -119 0 0 -90 0 -90 98 2 c53 1 108 -2 122 -7
24 -8 23 -9 -15 -16 -22 -4 -86 -8 -142 -8 l-103 -1 0 124 0 124 46 7 c25 3
79 3 119 0 70 -7 72 -6 78 16 4 13 7 55 7 93 l0 69 -82 -7 c-83 -6 -151 3
-171 23 -8 8 32 11 141 11 l152 0 0 -87z m868 -28 c3 -106 -12 -352 -22 -362
-2 -3 -17 1 -33 9 -32 15 -32 21 -19 176 l8 92 -121 0 -121 0 0 100 0 101 153
-3 152 -3 3 -110z m-1981 -72 c51 -20 90 -39 88 -43 -5 -8 -147 -70 -192 -84
-23 -7 -23 -6 -23 84 0 84 2 92 18 85 9 -3 59 -23 109 -42z m-653 -73 c18 -45
21 -80 7 -80 -6 0 -11 -15 -13 -32 -2 -22 -9 -34 -20 -36 -16 -3 -18 5 -18 70
0 121 16 148 44 78z m105 -73 c1 -67 -1 -78 -15 -75 -9 2 -22 20 -29 42 -8 21
-18 43 -23 48 -7 7 1 25 21 52 39 52 45 43 46 -67z m-214 73 c-8 -16 -18 -58
-22 -92 -7 -63 -7 -63 -14 -23 -5 22 -8 59 -8 83 -1 37 -4 42 -23 42 -19 0
-20 2 -8 10 8 5 32 10 53 10 l38 0 -16 -30z m366 9 c8 -17 8 -31 -1 -59 -10
-31 -10 -42 4 -68 24 -47 20 -48 -29 -8 l-44 37 -17 -32 c-23 -45 -34 -22 -34
74 l0 77 55 0 c45 0 56 -4 66 -21z m77 -49 c3 -71 13 -90 48 -90 25 0 31 19
36 109 2 27 8 46 17 49 11 4 13 -9 9 -71 -6 -95 -17 -111 -76 -104 -23 2 -45
7 -48 9 -2 3 -7 42 -11 88 -5 69 -4 82 8 78 10 -3 15 -24 17 -68z m-3225 -745
c29 -12 39 -23 48 -55 7 -22 10 -43 6 -46 -3 -3 -25 6 -49 19 -70 41 -110 44
-163 12 -25 -14 -50 -38 -56 -52 -17 -44 -14 -174 4 -210 37 -71 109 -92 185
-54 69 35 82 36 82 7 0 -21 5 -26 23 -26 21 0 25 8 37 58 7 31 26 93 42 137
17 44 40 109 53 145 l22 65 42 0 43 0 73 -205 c40 -113 76 -220 80 -237 6 -30
4 -33 -17 -33 -35 0 -51 14 -78 72 l-25 53 -79 0 -78 0 -25 -62 c-23 -57 -28
-63 -54 -63 -18 0 -34 8 -46 24 l-18 23 -39 -26 c-33 -21 -51 -26 -106 -26
-57 0 -74 5 -115 30 -85 53 -124 173 -95 296 21 88 35 108 103 140 71 33 142
38 200 14z m2187 -19 c59 -39 90 -108 90 -203 0 -119 -15 -167 -64 -207 -51
-43 -85 -56 -139 -56 -56 1 -113 28 -161 78 -39 41 -39 41 -44 139 -5 113 7
168 45 214 63 74 189 91 273 35z m248 6 c8 -11 12 -67 12 -199 l0 -182 103 -3
102 -3 0 -35 0 -35 -75 -3 c-41 -2 -108 0 -147 3 l-73 7 0 96 c0 54 3 161 7
239 l6 143 26 -6 c14 -4 32 -13 39 -22z m-1686 8 c20 -6 49 -25 63 -42 24 -28
27 -39 23 -83 -3 -36 -15 -69 -37 -105 l-32 -53 39 -41 c47 -49 112 -131 112
-140 0 -3 -20 -6 -45 -6 -45 0 -45 0 -127 100 -77 93 -84 99 -103 86 -17 -11
-20 -26 -23 -100 -3 -79 -4 -86 -23 -86 -11 0 -29 5 -40 10 -19 11 -19 20 -15
238 3 125 5 228 6 230 1 7 171 0 202 -8z m473 -17 c79 -42 115 -105 115 -200
-1 -94 -14 -141 -50 -178 -45 -46 -106 -66 -222 -72 l-98 -6 0 243 0 242 108
-4 c84 -3 116 -9 147 -25z m275 -63 l0 -90 100 0 100 0 0 90 0 90 40 0 40 0 0
-230 0 -230 -35 0 -34 0 -3 107 -3 107 -100 1 -100 0 -3 -112 c-3 -118 -19
-154 -24 -55 l-4 57 -8 -55 c-9 -53 -10 -54 -19 -25 -5 17 -11 121 -14 233
l-6 202 37 0 36 0 0 -90z m1435 79 c24 -6 62 -26 83 -45 101 -86 101 -272 -1
-361 -47 -41 -91 -53 -204 -53 l-93 0 0 235 0 235 86 0 c47 0 105 -5 129 -11z
m545 -19 l0 -30 -110 0 -110 0 0 -60 0 -59 103 -3 102 -3 0 -30 0 -30 -101 1
-102 0 -6 -73 c-4 -41 -4 -78 -1 -83 3 -6 55 -10 116 -10 l109 0 0 -30 0 -30
-150 0 -150 0 0 235 0 235 150 0 150 0 0 -30z m317 13 c91 -43 95 -148 10
-240 -14 -16 -17 -26 -10 -35 6 -7 41 -51 79 -98 60 -76 65 -85 46 -88 -39 -6
-90 29 -151 103 -33 41 -74 81 -89 89 l-29 15 -7 -61 c-3 -33 -6 -78 -6 -99 0
-38 -1 -39 -35 -39 l-35 0 0 235 0 235 96 0 c69 0 106 -5 131 -17z"/>
<path d="M6280 6964 l0 -86 71 4 c55 3 74 8 85 23 20 27 18 89 -3 107 -17 15
-31 19 -115 33 l-38 6 0 -87z"/>
<path d="M6280 6651 l0 -101 53 0 c66 0 123 16 148 41 19 19 25 71 13 104 -11
27 -59 45 -139 52 l-75 6 0 -102z"/>
<path d="M7060 6682 c-14 -2 -49 -10 -78 -18 -58 -16 -74 -38 -64 -90 10 -55
63 -69 136 -36 l40 18 -3 64 c-1 36 -3 65 -4 65 -1 1 -13 -1 -27 -3z"/>
<path d="M9962 6675 c-74 -14 -105 -39 -105 -86 0 -63 67 -85 156 -50 26 10
27 14 27 75 0 36 -3 67 -7 69 -5 2 -36 -1 -71 -8z"/>
<path d="M11510 6883 c-19 -10 -44 -36 -57 -58 l-22 -40 22 -7 c12 -3 66 -6
120 -7 98 -1 98 -1 91 22 -28 93 -84 126 -154 90z"/>
<path d="M6664 3556 c-3 -7 -4 -40 -2 -72 l3 -59 122 0 c67 0 125 4 129 8 5 4
10 37 12 72 l4 65 -131 0 c-102 0 -133 -3 -137 -14z"/>
<path d="M7302 3563 c-23 -4 -23 -6 -16 -101 3 -53 10 -101 14 -106 5 -5 25
-5 44 -2 l36 7 0 104 0 105 -27 -1 c-16 -1 -38 -4 -51 -6z"/>
<path d="M7206 3223 c-3 -38 -2 -84 2 -103 l8 -35 114 0 115 0 3 96 3 96 -92
6 c-159 12 -145 17 -153 -60z"/>
<path d="M8293 3234 c-15 -7 -18 -140 -3 -149 5 -3 63 -3 130 1 l121 7 -3 71
-3 71 -115 2 c-63 1 -121 -1 -127 -3z"/>
<path d="M4520 3188 c0 -18 3 -50 6 -70 7 -38 7 -38 54 -38 26 0 81 3 123 6
l77 7 0 63 0 64 -130 0 -130 0 0 -32z"/>
<path d="M5670 3506 c0 -35 3 -85 7 -111 l6 -47 39 5 c22 3 41 7 42 9 2 1 6
46 9 99 l6 97 -31 6 c-75 15 -78 13 -78 -58z"/>
<path d="M5596 3244 c-3 -26 -6 -73 -6 -105 l0 -59 136 0 136 0 -6 23 c-3 12
-6 59 -6 105 l0 82 -124 0 -123 0 -7 -46z"/>
<path d="M2060 2638 c-58 -66 -58 -68 0 -68 l50 0 0 55 c0 30 -3 55 -7 54 -5
0 -24 -19 -43 -41z"/>
<path d="M5900 2491 c0 -32 6 -56 18 -71 l19 -23 21 21 c22 22 38 82 28 107
-3 10 -19 15 -46 15 l-40 0 0 -49z"/>
<path d="M7120 2517 c0 -21 12 -28 27 -16 19 16 16 29 -7 29 -11 0 -20 -6 -20
-13z"/>
<path d="M7224 2216 c-3 -7 -4 -33 -2 -57 l3 -44 103 -3 102 -3 0 61 0 60
-100 0 c-77 0 -102 -3 -106 -14z"/>
<path d="M4790 2170 c0 -70 2 -80 18 -80 42 1 79 61 62 104 -9 26 -46 56 -67
56 -10 0 -13 -22 -13 -80z"/>
<path d="M6796 2221 c-3 -4 -3 -31 1 -60 l6 -51 97 0 97 0 6 51 c4 29 4 56 1
60 -3 5 -50 9 -104 9 -54 0 -101 -4 -104 -9z"/>
<path d="M4607 1981 c-6 -24 0 -31 25 -31 13 0 18 7 18 25 0 31 -35 35 -43 6z"/>
<path d="M1813 1105 c-13 -25 -43 -128 -43 -149 0 -13 11 -16 51 -16 l51 0 -6
33 c-3 17 -14 59 -24 92 -16 52 -20 57 -29 40z"/>
<path d="M3560 1153 c-49 -26 -70 -69 -77 -158 -6 -70 -4 -77 22 -116 37 -52
62 -69 103 -69 41 0 78 19 116 58 28 30 28 33 24 114 -5 90 -23 138 -62 163
-38 25 -87 28 -126 8z"/>
<path d="M2160 1080 l0 -81 62 3 c61 3 61 3 74 40 7 20 14 49 16 64 3 27 0 29
-57 41 -100 21 -95 24 -95 -67z"/>
<path d="M2582 991 c3 -95 10 -176 14 -181 18 -17 131 29 179 73 l47 42 -7 52
c-16 117 -64 166 -179 179 l-59 7 5 -172z"/>
<path d="M4330 991 c0 -149 2 -172 16 -178 29 -11 135 15 162 39 78 72 65 229
-23 279 -17 9 -58 20 -92 24 l-63 7 0 -171z"/>
<path d="M5190 1075 l0 -86 38 7 c56 10 85 26 100 56 26 54 -27 108 -108 108
l-30 0 0 -85z"/>
</g>
</svg>
